<svg xmlns="http://www.w3.org/2000/svg" width="1200" height="675" viewBox="0 0 1200 675" role="img" aria-labelledby="title desc">
  <title id="title">قانون الإيجار في مصر: الإيجار القديم والعقود الجديدة وإصلاح 2025 — doyouknow.app illustration</title>
  <desc id="desc">Original doyouknow.app editorial artwork for قانون الإيجار في مصر: الإيجار القديم والعقود الجديدة وإصلاح 2025.</desc>
  <defs>
    <linearGradient id="bg" x1="0" y1="0" x2="1" y2="1">
      <stop offset="0%" stop-color="#06231C"/>
      <stop offset="58%" stop-color="#047857"/>
      <stop offset="100%" stop-color="#34D399"/>
    </linearGradient>
    <radialGradient id="glow" cx="76%" cy="22%" r="58%">
      <stop offset="0%" stop-color="#fff" stop-opacity=".35"/>
      <stop offset="100%" stop-color="#fff" stop-opacity="0"/>
    </radialGradient>
    <pattern id="dots" width="42" height="42" patternUnits="userSpaceOnUse">
      <circle cx="6" cy="6" r="2.5" fill="#fff" opacity=".16"/>
    </pattern>
    <filter id="shadow" x="-20%" y="-20%" width="140%" height="140%">
      <feDropShadow dx="0" dy="20" stdDeviation="24" flood-color="#020617" flood-opacity=".38"/>
    </filter>
  </defs>
  <rect width="1200" height="675" fill="url(#bg)"/>
  <rect width="1200" height="675" fill="url(#dots)" opacity=".72"/>
  <circle cx="884" cy="170" r="360" fill="url(#glow)"/>
  <path d="M0 520 C160 438 302 560 460 478 C632 388 772 496 936 414 C1049 357 1136 372 1200 338 L1200 675 L0 675Z" fill="#fff" opacity=".13"/>
  <g filter="url(#shadow)">
    <path d="M480 250 L600 170 L720 250 L720 480 L480 480 Z" fill="#fff" opacity=".18"/>
    <path d="M480 250 L600 170 L720 250 L720 480 L480 480 Z" fill="none" stroke="#fff" stroke-width="12" stroke-linejoin="round" opacity=".8"/>
    <rect x="565" y="380" width="70" height="100" fill="none" stroke="#fff" stroke-width="9" opacity=".7"/>
    <rect x="515" y="280" width="46" height="46" fill="none" stroke="#fff" stroke-width="8" opacity=".6"/>
    <rect x="639" y="280" width="46" height="46" fill="none" stroke="#fff" stroke-width="8" opacity=".6"/>
    <circle cx="800" cy="430" r="34" fill="none" stroke="#fff" stroke-width="10" opacity=".7"/>
    <line x1="822" y1="452" x2="862" y2="492" stroke="#fff" stroke-width="10" stroke-linecap="round" opacity=".7"/>
    <line x1="850" y1="472" x2="870" y2="456" stroke="#fff" stroke-width="10" stroke-linecap="round" opacity=".7"/>
    <line x1="838" y1="484" x2="858" y2="468" stroke="#fff" stroke-width="10" stroke-linecap="round" opacity=".7"/>
  </g>
  <g transform="translate(0 0)" direction="rtl">
    <text x="1080" y="122" text-anchor="end" fill="#fff" opacity=".82" font-family="Inter, Cairo, Tajawal, Arial, sans-serif" font-size="28" font-weight="800" letter-spacing="3">DOYOUKNOW.APP</text>
    <text x="1080" y="202" text-anchor="end" fill="#fff" font-family="Inter, Cairo, Tajawal, Arial, sans-serif" font-size="52" font-weight="900">قانون الإيجار في مصر</text>
    <text x="1080" y="262" text-anchor="end" fill="#fff" opacity=".86" font-family="Inter, Cairo, Tajawal, Arial, sans-serif" font-size="30" font-weight="700">أدلة عملية في مصر</text>
    <rect x="760" y="300" width="320" height="8" rx="4" fill="#34D399"/>
  </g>
  <g transform="translate(120 542)">
    <rect width="386" height="58" rx="29" fill="#fff" opacity=".14"/>
    <text x="32" y="38" fill="#fff" font-family="Inter, Cairo, Tajawal, Arial, sans-serif" font-size="24" font-weight="800">أدلة عملية في مصر</text>
  </g>
</svg>
