<svg xmlns="http://www.w3.org/2000/svg" width="1200" height="675" viewBox="0 0 1200 675" role="img" aria-labelledby="title desc">
  <title id="title">بطاقة التموين ومنظومة الدعم الغذائي في مصر: كيف تعمل؟ — doyouknow.app illustration</title>
  <desc id="desc">Original doyouknow.app editorial artwork for بطاقة التموين ومنظومة الدعم الغذائي في مصر: كيف تعمل؟</desc>
  <defs>
    <linearGradient id="bg" x1="0" y1="0" x2="1" y2="1">
      <stop offset="0%" stop-color="#231303"/>
      <stop offset="58%" stop-color="#B45309"/>
      <stop offset="100%" stop-color="#FB923C"/>
    </linearGradient>
    <radialGradient id="glow" cx="76%" cy="22%" r="58%">
      <stop offset="0%" stop-color="#fff" stop-opacity=".35"/>
      <stop offset="100%" stop-color="#fff" stop-opacity="0"/>
    </radialGradient>
    <pattern id="dots" width="42" height="42" patternUnits="userSpaceOnUse">
      <circle cx="6" cy="6" r="2.5" fill="#fff" opacity=".16"/>
    </pattern>
    <filter id="shadow" x="-20%" y="-20%" width="140%" height="140%">
      <feDropShadow dx="0" dy="20" stdDeviation="24" flood-color="#020617" flood-opacity=".38"/>
    </filter>
  </defs>
  <rect width="1200" height="675" fill="url(#bg)"/>
  <rect width="1200" height="675" fill="url(#dots)" opacity=".72"/>
  <circle cx="884" cy="170" r="360" fill="url(#glow)"/>
  <path d="M0 520 C160 438 302 560 460 478 C632 388 772 496 936 414 C1049 357 1136 372 1200 338 L1200 675 L0 675Z" fill="#fff" opacity=".13"/>
  <g filter="url(#shadow)">
    <rect x="460" y="250" width="280" height="180" rx="20" fill="#fff" opacity=".18"/>
    <rect x="460" y="250" width="280" height="180" rx="20" fill="none" stroke="#fff" stroke-width="11" opacity=".8"/>
    <rect x="492" y="282" width="52" height="40" rx="8" fill="none" stroke="#fff" stroke-width="8" opacity=".7"/>
    <line x1="492" y1="352" x2="620" y2="352" stroke="#fff" stroke-width="9" stroke-linecap="round" opacity=".6"/>
    <line x1="492" y1="382" x2="580" y2="382" stroke="#fff" stroke-width="9" stroke-linecap="round" opacity=".6"/>
    <path d="M700 190 C688 240 688 300 700 350 C712 300 712 240 700 190 Z" fill="none" stroke="#fff" stroke-width="8" stroke-linejoin="round" opacity=".7"/>
    <path d="M700 190 L668 230 M700 190 L732 230 M700 250 L666 288 M700 250 L734 288" fill="none" stroke="#fff" stroke-width="8" stroke-linecap="round" opacity=".7"/>
    <line x1="700" y1="350" x2="700" y2="470" stroke="#fff" stroke-width="8" stroke-linecap="round" opacity=".7"/>
  </g>
  <g transform="translate(0 0)" direction="rtl">
    <text x="1080" y="122" text-anchor="end" fill="#fff" opacity=".82" font-family="Inter, Cairo, Tajawal, Arial, sans-serif" font-size="28" font-weight="800" letter-spacing="3">DOYOUKNOW.APP</text>
    <text x="1080" y="202" text-anchor="end" fill="#fff" font-family="Inter, Cairo, Tajawal, Arial, sans-serif" font-size="52" font-weight="900">بطاقة التموين في مصر</text>
    <text x="1080" y="262" text-anchor="end" fill="#fff" opacity=".86" font-family="Inter, Cairo, Tajawal, Arial, sans-serif" font-size="30" font-weight="700">أدلة عملية في مصر</text>
    <rect x="760" y="300" width="320" height="8" rx="4" fill="#FB923C"/>
  </g>
  <g transform="translate(120 542)">
    <rect width="386" height="58" rx="29" fill="#fff" opacity=".14"/>
    <text x="32" y="38" fill="#fff" font-family="Inter, Cairo, Tajawal, Arial, sans-serif" font-size="24" font-weight="800">أدلة عملية في مصر</text>
  </g>
</svg>
