<svg xmlns="http://www.w3.org/2000/svg" width="1200" height="675" viewBox="0 0 1200 675" role="img" aria-labelledby="title desc">
  <title id="title">صلاة الجمعة: التوقيت والخطبة والآداب — doyouknow.app illustration</title>
  <desc id="desc">Original doyouknow.app editorial artwork for صلاة الجمعة.</desc>
  <defs>
    <linearGradient id="bg" x1="0" y1="0" x2="1" y2="1">
      <stop offset="0%" stop-color="#022C22"/>
      <stop offset="50%" stop-color="#047857"/>
      <stop offset="100%" stop-color="#FCD34D"/>
    </linearGradient>
    <radialGradient id="glow" cx="76%" cy="22%" r="58%">
      <stop offset="0%" stop-color="#fff" stop-opacity=".35"/>
      <stop offset="100%" stop-color="#fff" stop-opacity="0"/>
    </radialGradient>
    <pattern id="dots" width="42" height="42" patternUnits="userSpaceOnUse">
      <circle cx="6" cy="6" r="2.5" fill="#fff" opacity=".16"/>
    </pattern>
    <filter id="shadow" x="-20%" y="-20%" width="140%" height="140%">
      <feDropShadow dx="0" dy="20" stdDeviation="24" flood-color="#020617" flood-opacity=".38"/>
    </filter>
  </defs>
  <rect width="1200" height="675" fill="url(#bg)"/>
  <rect width="1200" height="675" fill="url(#dots)" opacity=".72"/>
  <circle cx="884" cy="170" r="360" fill="url(#glow)"/>
  <path d="M0 520 C160 438 302 560 460 478 C632 388 772 496 936 414 C1049 357 1136 372 1200 338 L1200 675 L0 675Z" fill="#fff" opacity=".13"/>
  <g filter="url(#shadow)">
    <path d="M470 470 a140 110 0 0 1 280 0 Z" fill="#fff" opacity=".5"/><rect x="445" y="470" width="310" height="56" rx="10" fill="#fff" opacity=".35"/><rect x="592" y="240" width="16" height="130" fill="#fff" opacity=".55"/><circle cx="600" cy="226" r="16" fill="#fff" opacity=".55"/><rect x="395" y="235" width="36" height="295" rx="10" fill="#fff" opacity=".4"/><path d="M375 235 l38 -52 38 52 Z" fill="#fff" opacity=".4"/><rect x="769" y="275" width="36" height="255" rx="10" fill="#fff" opacity=".4"/><path d="M749 275 l38 -52 38 52 Z" fill="#fff" opacity=".4"/>
  </g>
  <g transform="translate(0 0)" direction="rtl">
    <text x="1080" y="122" text-anchor="end" fill="#fff" opacity=".82" font-family="Inter, Cairo, Tajawal, Arial, sans-serif" font-size="28" font-weight="800" letter-spacing="3">DOYOUKNOW.APP</text>
    <text x="1080" y="202" text-anchor="end" fill="#fff" font-family="Inter, Cairo, Tajawal, Arial, sans-serif" font-size="54" font-weight="900">صلاة الجمعة: دليل عملي</text>
    <text x="1080" y="262" text-anchor="end" fill="#fff" opacity=".86" font-family="Inter, Cairo, Tajawal, Arial, sans-serif" font-size="30" font-weight="700">الثقافة والمعرفة الإسلامية</text>
    <rect x="760" y="300" width="320" height="8" rx="4" fill="#FCD34D"/>
  </g>
  <g transform="translate(120 542)">
    <rect width="660" height="58" rx="29" fill="#fff" opacity=".14"/>
    <text x="32" y="38" fill="#fff" font-family="Inter, Cairo, Tajawal, Arial, sans-serif" font-size="24" font-weight="800">الثقافة والمعرفة الإسلامية</text>
  </g>
</svg>
