<svg xmlns="http://www.w3.org/2000/svg" width="1200" height="675" viewBox="0 0 1200 675" role="img" aria-labelledby="title desc">
  <title id="title">كيف تبدأ مشروعاً في دبي — doyouknow.app illustration</title>
  <desc id="desc">رسم تحريري من doyouknow.app لمقال كيف تبدأ مشروعاً في دبي.</desc>
  <defs>
    <linearGradient id="bg" x1="0" y1="0" x2="1" y2="1"><stop offset="0%" stop-color="#123C69"/><stop offset="58%" stop-color="#22C55E"/><stop offset="100%" stop-color="#B45309"/></linearGradient>
    <radialGradient id="glow" cx="76%" cy="22%" r="58%"><stop offset="0%" stop-color="#fff" stop-opacity=".35"/><stop offset="100%" stop-color="#fff" stop-opacity="0"/></radialGradient>
    <pattern id="dots" width="42" height="42" patternUnits="userSpaceOnUse"><circle cx="6" cy="6" r="2.5" fill="#fff" opacity=".16"/></pattern>
    <filter id="shadow" x="-20%" y="-20%" width="140%" height="140%"><feDropShadow dx="0" dy="20" stdDeviation="24" flood-color="#020617" flood-opacity=".38"/></filter>
  </defs>
  <rect width="1200" height="675" fill="url(#bg)"/><rect width="1200" height="675" fill="url(#dots)" opacity=".72"/><circle cx="884" cy="170" r="360" fill="url(#glow)"/>
  <g filter="url(#shadow)"><path d="M350 190h392c33 0 60 27 60 60v246c0 33-27 60-60 60H350c-33 0-60-27-60-60V250c0-33 27-60 60-60Z" fill="#fff" opacity=".16"/><path d="M378 284h336M378 356h336M378 428h222" stroke="#fff" stroke-width="18" stroke-linecap="round" opacity=".72"/><path d="m734 410 47 47 88-105" fill="none" stroke="#fff" stroke-width="22" stroke-linecap="round" stroke-linejoin="round" opacity=".82"/></g>
  <g direction="rtl" unicode-bidi="bidi-override">
    <text x="1080" y="122" text-anchor="end" fill="#fff" opacity=".82" font-family="Cairo, Tajawal, Arial, sans-serif" font-size="28" font-weight="800" letter-spacing="2">DOYOUKNOW.APP</text>
    <text x="1080" y="214" text-anchor="end" fill="#fff" font-family="Cairo, Tajawal, Arial, sans-serif" font-size="60" font-weight="900">كيف تبدأ مشروعاً في دبي</text>
    <text x="1080" y="280" text-anchor="end" fill="#fff" opacity=".86" font-family="Cairo, Tajawal, Arial, sans-serif" font-size="30" font-weight="700">دليل عملي</text>
    <rect x="760" y="315" width="320" height="8" rx="4" fill="#B45309"/>
  </g>
</svg>
