<svg xmlns="http://www.w3.org/2000/svg" width="1200" height="675" viewBox="0 0 1200 675" role="img" aria-labelledby="title desc">
  <title id="title">لماذا تهطل الأمطار الغزيرة فجأة في السعودية؟ — doyouknow.app illustration</title>
  <desc id="desc">رسم تحريري أصلي من doyouknow.app لمقال لماذا تهطل الأمطار الغزيرة فجأة في السعودية؟</desc>
  <defs>
    <linearGradient id="bg" x1="0" y1="0" x2="1" y2="1"><stop offset="0%" stop-color="#082F49"/><stop offset="58%" stop-color="#0369A1"/><stop offset="100%" stop-color="#B45309"/></linearGradient>
    <radialGradient id="glow" cx="24%" cy="22%" r="58%"><stop offset="0%" stop-color="#fff" stop-opacity=".35"/><stop offset="100%" stop-color="#fff" stop-opacity="0"/></radialGradient>
    <pattern id="dots" width="42" height="42" patternUnits="userSpaceOnUse"><circle cx="6" cy="6" r="2.5" fill="#fff" opacity=".16"/></pattern>
    <filter id="shadow" x="-20%" y="-20%" width="140%" height="140%"><feDropShadow dx="0" dy="20" stdDeviation="24" flood-color="#020617" flood-opacity=".38"/></filter>
  </defs>
  <rect width="1200" height="675" fill="url(#bg)"/><rect width="1200" height="675" fill="url(#dots)" opacity=".72"/><circle cx="316" cy="170" r="360" fill="url(#glow)"/>
  <path d="M0 520 C160 438 302 560 460 478 C632 388 772 496 936 414 C1049 357 1136 372 1200 338 L1200 675 L0 675Z" fill="#fff" opacity=".13"/>
  <g filter="url(#shadow)">
    <path d="M460 380a80 80 0 0 1 18-158 100 100 0 0 1 190-22 78 78 0 0 1 92 76 70 70 0 0 1-20 104H480a66 66 0 0 1-20-0z" fill="none" stroke="#fff" stroke-width="18" stroke-linejoin="round" opacity=".72"/>
    <path d="M510 430l-26 70M600 430l-26 70M690 430l-26 70M780 430l-26 70" stroke="#fff" stroke-width="16" stroke-linecap="round" opacity=".62"/>
    <path d="M650 500l-34 62h52l-22 58" fill="none" stroke="#FDE68A" stroke-width="16" stroke-linecap="round" stroke-linejoin="round" opacity=".85"/>
  </g>
  <g direction="rtl">
    <text x="1080" y="122" text-anchor="end" fill="#fff" opacity=".82" font-family="Inter, Cairo, Tajawal, Arial, sans-serif" font-size="28" font-weight="800" letter-spacing="3">DOYOUKNOW.APP</text>
    <text x="1080" y="202" text-anchor="end" fill="#fff" font-family="Inter, Cairo, Tajawal, Arial, sans-serif" font-size="46" font-weight="900">لماذا تهطل الأمطار الغزيرة فجأة في السعودية؟</text>
    <text x="1080" y="268" text-anchor="end" fill="#fff" opacity=".86" font-family="Inter, Cairo, Tajawal, Arial, sans-serif" font-size="30" font-weight="700">السعودية: التاريخ والثقافة</text>
    <rect x="760" y="300" width="320" height="8" rx="4" fill="#38BDF8"/>
  </g>
</svg>
