<svg xmlns="http://www.w3.org/2000/svg" width="1200" height="675" viewBox="0 0 1200 675" role="img" aria-labelledby="title desc">
  <title id="title">كيف توفر المال في دبي: 25 نصيحة عملية للمقيمين والزوار — doyouknow.app illustration</title>
  <desc id="desc">Original doyouknow.app editorial artwork for كيف توفر المال في دبي: 25 نصيحة عملية للمقيمين والزوار.</desc>
  <defs>
    <linearGradient id="bg" x1="0" y1="0" x2="1" y2="1">
      <stop offset="0%" stop-color="#1E3A5F"/>
      <stop offset="50%" stop-color="#3B82F6"/>
      <stop offset="100%" stop-color="#F8FAFC"/>
    </linearGradient>
    <radialGradient id="glow" cx="76%" cy="22%" r="58%">
      <stop offset="0%" stop-color="#fff" stop-opacity=".35"/>
      <stop offset="100%" stop-color="#fff" stop-opacity="0"/>
    </radialGradient>
    <pattern id="dots" width="42" height="42" patternUnits="userSpaceOnUse">
      <circle cx="6" cy="6" r="2.5" fill="#fff" opacity=".16"/>
    </pattern>
    <filter id="shadow" x="-20%" y="-20%" width="140%" height="140%">
      <feDropShadow dx="0" dy="20" stdDeviation="24" flood-color="#020617" flood-opacity=".38"/>
    </filter>
  </defs>
  <rect width="1200" height="675" fill="url(#bg)"/>
  <rect width="1200" height="675" fill="url(#dots)" opacity=".72"/>
  <circle cx="884" cy="170" r="360" fill="url(#glow)"/>
  <path d="M0 520 C160 438 302 560 460 478 C632 388 772 496 936 414 C1049 357 1136 372 1200 338 L1200 675 L0 675Z" fill="#fff" opacity=".13"/>
  <g filter="url(#shadow)" transform="translate(0 0)">
    <rect x="420" y="240" width="320" height="220" rx="20" fill="none" stroke="#fff" stroke-width="18" stroke-linecap="round" opacity=".72"/>
    <rect x="460" y="280" width="240" height="60" rx="10" fill="none" stroke="#fff" stroke-width="14" stroke-linecap="round" opacity=".62"/>
    <rect x="460" y="360" width="160" height="60" rx="10" fill="none" stroke="#fff" stroke-width="14" stroke-linecap="round" opacity=".62"/>
    <circle cx="710" cy="390" r="30" fill="none" stroke="#fff" stroke-width="14" stroke-linecap="round" opacity=".62"/>
    <path d="M360 540c116-58 284-58 400 0" fill="none" stroke="#fff" stroke-width="18" stroke-linecap="round" opacity=".42"/>
  </g>
  <g transform="translate(0 0)" direction="rtl">
    <text x="1080" y="122" text-anchor="end" fill="#fff" opacity=".82" font-family="Inter, Cairo, Tajawal, Arial, sans-serif" font-size="28" font-weight="800" letter-spacing="3">DOYOUKNOW.APP</text>
    <text x="1080" y="202" text-anchor="end" fill="#fff" font-family="Inter, Cairo, Tajawal, Arial, sans-serif" font-size="50" font-weight="900">كيف توفر المال في دبي</text>
    <text x="1080" y="262" text-anchor="end" fill="#fff" opacity=".86" font-family="Inter, Cairo, Tajawal, Arial, sans-serif" font-size="30" font-weight="700">25 نصيحة عملية مجربة</text>
    <rect x="760" y="300" width="320" height="8" rx="4" fill="#F8FAFC"/>
  </g>
  <g transform="translate(120 542)">
    <rect width="320" height="58" rx="29" fill="#fff" opacity=".14"/>
    <text x="32" y="38" fill="#fff" font-family="Inter, Cairo, Tajawal, Arial, sans-serif" font-size="24" font-weight="800">أدلة عملية</text>
  </g>
</svg>
