<svg xmlns="http://www.w3.org/2000/svg" width="1200" height="675" viewBox="0 0 1200 675" role="img" aria-labelledby="title desc">
  <title id="title">دليل التخييم في صحاري السعودية: أفضل الوجهات والمعدات والسلامة — doyouknow.app illustration</title>
  <desc id="desc">رسم توضيحي تحريري أصلي من doyouknow.app لدليل التخييم في صحاري السعودية.</desc>
  <defs>
    <linearGradient id="bg" x1="0" y1="0" x2="1" y2="1">
      <stop offset="0%" stop-color="#0F172A"/>
      <stop offset="40%" stop-color="#78350F"/>
      <stop offset="100%" stop-color="#D97706"/>
    </linearGradient>
    <radialGradient id="glow" cx="24%" cy="22%" r="58%">
      <stop offset="0%" stop-color="#fff" stop-opacity=".35"/>
      <stop offset="100%" stop-color="#fff" stop-opacity="0"/>
    </radialGradient>
    <pattern id="dots" width="42" height="42" patternUnits="userSpaceOnUse">
      <circle cx="6" cy="6" r="2.5" fill="#fff" opacity=".16"/>
    </pattern>
    <filter id="shadow" x="-20%" y="-20%" width="140%" height="140%">
      <feDropShadow dx="0" dy="20" stdDeviation="24" flood-color="#020617" flood-opacity=".38"/>
    </filter>
  </defs>
  <rect width="1200" height="675" fill="url(#bg)"/>
  <rect width="1200" height="675" fill="url(#dots)" opacity=".72"/>
  <circle cx="316" cy="170" r="360" fill="url(#glow)"/>
  <path d="M0 520 C160 438 302 560 460 478 C632 388 772 496 936 414 C1049 357 1136 372 1200 338 L1200 675 L0 675Z" fill="#fff" opacity=".13"/>
  <g filter="url(#shadow)" transform="translate(0 0)">
    <path d="M200 520 L320 400 L440 460 L560 340 L680 420 L800 300 L920 380 L1040 260 L1160 340" fill="none" stroke="#fff" stroke-width="10" stroke-linecap="round" stroke-linejoin="round" opacity=".72"/>
    <circle cx="320" cy="400" r="12" fill="#D97706" opacity=".9"/>
    <circle cx="560" cy="340" r="12" fill="#D97706" opacity=".9"/>
    <circle cx="800" cy="300" r="12" fill="#D97706" opacity=".9"/>
    <circle cx="1040" cy="260" r="12" fill="#D97706" opacity=".9"/>
  </g>
  <g transform="translate(0 0)">
    <text x="1080" y="122" text-anchor="end" fill="#fff" opacity=".82" font-family="Inter, Cairo, Tajawal, Arial, sans-serif" font-size="28" font-weight="800" letter-spacing="3">DOYOUKNOW.APP</text>
    <text x="1080" y="202" text-anchor="end" fill="#fff" font-family="Inter, Cairo, Tajawal, Arial, sans-serif" font-size="48" font-weight="900">دليل التخييم في صحاري السعودية</text>
    <text x="1080" y="262" text-anchor="end" fill="#fff" opacity=".86" font-family="Inter, Cairo, Tajawal, Arial, sans-serif" font-size="30" font-weight="700">المملكة العربية السعودية</text>
    <rect x="760" y="300" width="320" height="8" rx="4" fill="#D97706"/>
  </g>
  <g transform="translate(840 542)">
    <rect width="240" height="58" rx="29" fill="#fff" opacity=".14"/>
    <text x="120" y="38" text-anchor="middle" fill="#fff" font-family="Inter, Cairo, Tajawal, Arial, sans-serif" font-size="24" font-weight="800">السعودية</text>
  </g>
</svg>