<svg xmlns="http://www.w3.org/2000/svg" width="1200" height="675" viewBox="0 0 1200 675" role="img" aria-labelledby="title desc">
  <title id="title">التقاعد في السعودية: السن والمعاش وقواعد التأمينات — doyouknow.app illustration</title>
  <desc id="desc">رسم تحريري أصلي من doyouknow.app لمقال التقاعد في السعودية: السن والمعاش وقواعد التأمينات</desc>
  <defs>
    <linearGradient id="bg" x1="0" y1="0" x2="1" y2="1"><stop offset="0%" stop-color="#701A10"/><stop offset="58%" stop-color="#C2410C"/><stop offset="100%" stop-color="#0F766E"/></linearGradient>
    <radialGradient id="glow" cx="24%" cy="22%" r="58%"><stop offset="0%" stop-color="#fff" stop-opacity=".35"/><stop offset="100%" stop-color="#fff" stop-opacity="0"/></radialGradient>
    <pattern id="dots" width="42" height="42" patternUnits="userSpaceOnUse"><circle cx="6" cy="6" r="2.5" fill="#fff" opacity=".16"/></pattern>
    <filter id="shadow" x="-20%" y="-20%" width="140%" height="140%"><feDropShadow dx="0" dy="20" stdDeviation="24" flood-color="#020617" flood-opacity=".38"/></filter>
  </defs>
  <rect width="1200" height="675" fill="url(#bg)"/><rect width="1200" height="675" fill="url(#dots)" opacity=".72"/><circle cx="316" cy="170" r="360" fill="url(#glow)"/>
  <path d="M0 520 C160 438 302 560 460 478 C632 388 772 496 936 414 C1049 357 1136 372 1200 338 L1200 675 L0 675Z" fill="#fff" opacity=".13"/>
  <g filter="url(#shadow)">
    <circle cx="580" cy="400" r="90" fill="none" stroke="#FDE68A" stroke-width="18" opacity=".85"/>
    <path d="M840 500H320" stroke="#fff" stroke-width="18" stroke-linecap="round" opacity=".72"/>
    <path d="M720 500c0-90-20-150-40-190M680 310c50-10 90 10 110 50M680 310c-10-55 10-95 50-115M680 310c-50-30-100-30-140 0M680 310c-60 0-100 30-115 70" fill="none" stroke="#fff" stroke-width="16" stroke-linecap="round" opacity=".72"/>
    <path d="M440 500c0-60-12-100-26-126M414 374c34-8 60 6 74 34M414 374c-6-38 8-64 34-78M414 374c-34-20-68-20-94 0M414 374c-40 0-66 20-78 46" fill="none" stroke="#fff" stroke-width="14" stroke-linecap="round" opacity=".62"/>
  </g>
  <g direction="rtl">
    <text x="1080" y="122" text-anchor="end" fill="#fff" opacity=".82" font-family="Inter, Cairo, Tajawal, Arial, sans-serif" font-size="28" font-weight="800" letter-spacing="3">DOYOUKNOW.APP</text>
    <text x="1080" y="202" text-anchor="end" fill="#fff" font-family="Inter, Cairo, Tajawal, Arial, sans-serif" font-size="44" font-weight="900">التقاعد في السعودية: السن والمعاش وقواعد التأمينات</text>
    <text x="1080" y="268" text-anchor="end" fill="#fff" opacity=".86" font-family="Inter, Cairo, Tajawal, Arial, sans-serif" font-size="30" font-weight="700">أدلة عملية في السعودية</text>
    <rect x="760" y="300" width="320" height="8" rx="4" fill="#FDE68A"/>
  </g>
</svg>
