<svg xmlns="http://www.w3.org/2000/svg" width="1200" height="675" viewBox="0 0 1200 675" role="img" aria-labelledby="title desc">
  <title id="title">سامو كوستا: ملف اللاعب — doyouknow.app illustration</title>
  <desc id="desc">Original doyouknow.app editorial artwork for سامو كوستا: ملف لاعب وسط مايوركة ومنتخب البرتغال.</desc>
  <defs>
    <linearGradient id="bg" x1="0" y1="0" x2="1" y2="1"><stop offset="0%" stop-color="#7C2D12"/><stop offset="58%" stop-color="#B45309"/><stop offset="100%" stop-color="#065F46"/></linearGradient>
    <radialGradient id="glow" cx="76%" cy="22%" r="58%"><stop offset="0%" stop-color="#fff" stop-opacity=".35"/><stop offset="100%" stop-color="#fff" stop-opacity="0"/></radialGradient>
    <pattern id="dots" width="42" height="42" patternUnits="userSpaceOnUse"><circle cx="6" cy="6" r="2.5" fill="#fff" opacity=".16"/></pattern>
    <filter id="shadow" x="-20%" y="-20%" width="140%" height="140%"><feDropShadow dx="0" dy="20" stdDeviation="24" flood-color="#020617" flood-opacity=".38"/></filter>
  </defs>
  <rect width="1200" height="675" fill="url(#bg)"/><rect width="1200" height="675" fill="url(#dots)" opacity=".72"/><circle cx="884" cy="170" r="360" fill="url(#glow)"/>
  <path d="M0 520 C160 438 302 560 460 478 C632 388 772 496 936 414 C1049 357 1136 372 1200 338 L1200 675 L0 675Z" fill="#fff" opacity=".13"/>
  <g filter="url(#shadow)" opacity=".85">
    <circle cx="700" cy="150" r="34" fill="#fff"/>
    <path d="M700 196 C664 226 648 268 656 316 L626 302 C604 292 590 272 596 250 C602 226 630 200 664 186 Z" fill="#fff"/>
    <path d="M700 196 C740 214 762 248 758 292 L792 282 C810 276 822 258 816 238 C808 212 776 192 736 184 Z" fill="#fff"/>
    <path d="M672 316 C668 360 676 402 700 440 L668 502 L628 486 L652 420 C640 386 640 348 656 316 Z" fill="#fff"/>
    <path d="M712 322 C734 358 748 396 750 436 L792 486 L756 508 L716 452 C700 418 696 372 700 336 Z" fill="#fff"/>
    <circle cx="592" cy="500" r="34" fill="none" stroke="#fff" stroke-width="12"/>
    <path d="M592 478 L610 492 L603 514 H581 L574 492 Z" fill="#fff"/>
  </g>
  <g direction="rtl">
    <text x="1080" y="122" text-anchor="end" fill="#fff" opacity=".82" font-family="Inter, Cairo, Tajawal, Arial, sans-serif" font-size="28" font-weight="800" letter-spacing="3">DOYOUKNOW.APP</text>
    <text x="1080" y="202" text-anchor="end" fill="#fff" font-family="Inter, Cairo, Tajawal, Arial, sans-serif" font-size="56" font-weight="900">سامو كوستا: ملف اللاعب</text>
    <text x="1080" y="262" text-anchor="end" fill="#fff" opacity=".86" font-family="Inter, Cairo, Tajawal, Arial, sans-serif" font-size="30" font-weight="700">السعودية: التاريخ والثقافة</text>
    <rect x="760" y="300" width="320" height="8" rx="4" fill="#065F46"/>
  </g>
</svg>
