<svg xmlns="http://www.w3.org/2000/svg" width="1200" height="675" viewBox="0 0 1200 675" role="img" aria-labelledby="title desc">
  <title id="title">التوقف في إسطنبول مع الخطوط التركية — doyouknow.app illustration</title>
  <desc id="desc">Original doyouknow.app editorial artwork for التوقف في إسطنبول مع الخطوط التركية.</desc>
  <defs>
    <linearGradient id="bg" x1="0" y1="0" x2="1" y2="1">
      <stop offset="0%" stop-color="#082F49"/>
      <stop offset="50%" stop-color="#0369A1"/>
      <stop offset="100%" stop-color="#7DD3FC"/>
    </linearGradient>
    <radialGradient id="glow" cx="76%" cy="22%" r="58%">
      <stop offset="0%" stop-color="#fff" stop-opacity=".35"/>
      <stop offset="100%" stop-color="#fff" stop-opacity="0"/>
    </radialGradient>
    <pattern id="dots" width="42" height="42" patternUnits="userSpaceOnUse">
      <circle cx="6" cy="6" r="2.5" fill="#fff" opacity=".16"/>
    </pattern>
    <filter id="shadow" x="-20%" y="-20%" width="140%" height="140%">
      <feDropShadow dx="0" dy="20" stdDeviation="24" flood-color="#020617" flood-opacity=".38"/>
    </filter>
  </defs>
  <rect width="1200" height="675" fill="url(#bg)"/>
  <rect width="1200" height="675" fill="url(#dots)" opacity=".72"/>
  <circle cx="884" cy="170" r="360" fill="url(#glow)"/>
  <path d="M0 520 C160 438 302 560 460 478 C632 388 772 496 936 414 C1049 357 1136 372 1200 338 L1200 675 L0 675Z" fill="#fff" opacity=".13"/>
  <g filter="url(#shadow)">
    <g transform="rotate(-8 560 250)"><ellipse cx="560" cy="250" rx="170" ry="30" fill="#fff" opacity=".85"/><path d="M520 240 l-90 -60 l30 0 l90 60 Z" fill="#fff" opacity=".85"/><path d="M560 258 l-70 80 l34 0 l66 -80 Z" fill="#fff" opacity=".7"/><path d="M560 242 l-70 -80 l34 0 l66 80 Z" fill="#fff" opacity=".7"/><path d="M712 242 l34 -40 l16 0 l-20 48 Z" fill="#fff" opacity=".85"/></g><rect x="420" y="440" width="14" height="120" fill="#fff" opacity=".6"/><rect x="766" y="440" width="14" height="120" fill="#fff" opacity=".6"/><path d="M300 480 C420 410 780 410 900 480" stroke="#fff" stroke-width="9" fill="none" opacity=".6"/><path d="M300 480 h600" stroke="#fff" stroke-width="7" opacity=".45"/><path d="M240 580 q120 -46 240 0 t240 0 t240 0" stroke="#fff" stroke-width="10" fill="none" opacity=".5"/>
  </g>
  <g transform="translate(0 0)" direction="rtl">
    <text x="1080" y="122" text-anchor="end" fill="#fff" opacity=".82" font-family="Inter, Cairo, Tajawal, Arial, sans-serif" font-size="28" font-weight="800" letter-spacing="3">DOYOUKNOW.APP</text>
    <text x="1080" y="202" text-anchor="end" fill="#fff" font-family="Inter, Cairo, Tajawal, Arial, sans-serif" font-size="44" font-weight="900">التوقف في إسطنبول مع الخطوط التركية</text>
    <text x="1080" y="262" text-anchor="end" fill="#fff" opacity=".86" font-family="Inter, Cairo, Tajawal, Arial, sans-serif" font-size="30" font-weight="700">أدلة عملية في السعودية</text>
    <rect x="760" y="300" width="320" height="8" rx="4" fill="#7DD3FC"/>
  </g>
  <g transform="translate(120 542)">
    <rect width="580" height="58" rx="29" fill="#fff" opacity=".14"/>
    <text x="32" y="38" fill="#fff" font-family="Inter, Cairo, Tajawal, Arial, sans-serif" font-size="24" font-weight="800">أدلة عملية في السعودية</text>
  </g>
</svg>
