<svg xmlns="http://www.w3.org/2000/svg" width="1200" height="675" viewBox="0 0 1200 675" role="img" aria-labelledby="title desc">
  <title id="title">التنسيق الإلكتروني: شرح نظام القبول بالجامعات المصرية — رسم توضيحي من doyouknow.app</title>
  <desc id="desc">رسم تحريري أصلي من doyouknow.app لمقال التنسيق الإلكتروني: شرح نظام القبول بالجامعات المصرية.</desc>
  <defs>
    <linearGradient id="bg" x1="0" y1="0" x2="1" y2="1">
      <stop offset="0%" stop-color="#0B2C4D"/>
      <stop offset="58%" stop-color="#1D4ED8"/>
      <stop offset="100%" stop-color="#D4A017"/>
    </linearGradient>
    <radialGradient id="glow" cx="76%" cy="22%" r="58%">
      <stop offset="0%" stop-color="#fff" stop-opacity=".35"/>
      <stop offset="100%" stop-color="#fff" stop-opacity="0"/>
    </radialGradient>
    <pattern id="dots" width="42" height="42" patternUnits="userSpaceOnUse">
      <circle cx="6" cy="6" r="2.5" fill="#fff" opacity=".16"/>
    </pattern>
    <filter id="shadow" x="-20%" y="-20%" width="140%" height="140%">
      <feDropShadow dx="0" dy="20" stdDeviation="24" flood-color="#020617" flood-opacity=".38"/>
    </filter>
  </defs>
  <rect width="1200" height="675" fill="url(#bg)"/>
  <rect width="1200" height="675" fill="url(#dots)" opacity=".72"/>
  <circle cx="884" cy="170" r="360" fill="url(#glow)"/>
  <path d="M0 520 C160 438 302 560 460 478 C632 388 772 496 936 414 C1049 357 1136 372 1200 338 L1200 675 L0 675Z" fill="#fff" opacity=".13"/>
  <g filter="url(#shadow)" transform="translate(0 0)">
    <path d="M350 250h300l92 92v214c0 33-27 60-60 60H350c-33 0-60-27-60-60V310c0-33 27-60 60-60Z" fill="#fff" opacity=".16"/>
    <path d="M650 250v92h92" fill="#fff" opacity=".28"/>
    <path d="M378 412h280M378 482h280M378 552h180" stroke="#fff" stroke-width="16" stroke-linecap="round" opacity=".72"/>
    <path d="M900 150 1064 238 900 326 736 238Z" fill="#fff" opacity=".85"/>
    <path d="M792 306v42c0 46 216 46 216 0v-42" fill="none" stroke="#fff" stroke-width="16" stroke-linecap="round" opacity=".7"/>
    <path d="M1064 238v104" stroke="#D4A017" stroke-width="12" stroke-linecap="round"/>
    <circle cx="1064" cy="358" r="15" fill="#D4A017"/>
  </g>
  <g transform="translate(0 0)" direction="rtl">
    <text x="1080" y="122" text-anchor="end" fill="#fff" opacity=".82" font-family="Inter, Cairo, Tajawal, Arial, sans-serif" font-size="28" font-weight="800" letter-spacing="3">DOYOUKNOW.APP</text>
    <text x="1080" y="202" text-anchor="end" fill="#fff" font-family="Inter, Cairo, Tajawal, Arial, sans-serif" font-size="52" font-weight="900">التنسيق الإلكتروني: شرح نظام القبول بالجامعات المصرية</text>
    <text x="1080" y="262" text-anchor="end" fill="#fff" opacity=".86" font-family="Inter, Cairo, Tajawal, Arial, sans-serif" font-size="30" font-weight="700">دليل مصر</text>
    <rect x="760" y="300" width="320" height="8" rx="4" fill="#D4A017"/>
  </g>
  <g transform="translate(120 542)">
    <rect width="386" height="58" rx="29" fill="#fff" opacity=".14"/>
    <text x="32" y="38" fill="#fff" font-family="Inter, Cairo, Tajawal, Arial, sans-serif" font-size="24" font-weight="800">دليل مصر</text>
  </g>
</svg>
