<svg xmlns="http://www.w3.org/2000/svg" width="1200" height="675" viewBox="0 0 1200 675" role="img" aria-labelledby="title desc">
  <title id="title">فعاليات دبي هذا الأسبوع: دليل الأنشطة والترفيه — doyouknow.app illustration</title>
  <desc id="desc">Original doyouknow.app editorial artwork for فعاليات دبي هذا الأسبوع: دليل الأنشطة والترفيه.</desc>
  <defs>
    <linearGradient id="bg" x1="0" y1="0" x2="1" y2="1">
      <stop offset="0%" stop-color="#7C3AED"/>
      <stop offset="50%" stop-color="#A855F7"/>
      <stop offset="100%" stop-color="#F5F3FF"/>
    </linearGradient>
    <radialGradient id="glow" cx="76%" cy="22%" r="58%">
      <stop offset="0%" stop-color="#fff" stop-opacity=".35"/>
      <stop offset="100%" stop-color="#fff" stop-opacity="0"/>
    </radialGradient>
    <pattern id="dots" width="42" height="42" patternUnits="userSpaceOnUse">
      <circle cx="6" cy="6" r="2.5" fill="#fff" opacity=".16"/>
    </pattern>
    <filter id="shadow" x="-20%" y="-20%" width="140%" height="140%">
      <feDropShadow dx="0" dy="20" stdDeviation="24" flood-color="#020617" flood-opacity=".38"/>
    </filter>
  </defs>
  <rect width="1200" height="675" fill="url(#bg)"/>
  <rect width="1200" height="675" fill="url(#dots)" opacity=".72"/>
  <circle cx="884" cy="170" r="360" fill="url(#glow)"/>
  <path d="M0 520 C160 438 302 560 460 478 C632 388 772 496 936 414 C1049 357 1136 372 1200 338 L1200 675 L0 675Z" fill="#fff" opacity=".13"/>
  <g filter="url(#shadow)" transform="translate(0 0)">
    <circle cx="580" cy="340" r="120" fill="none" stroke="#fff" stroke-width="16" opacity=".72"/>
    <circle cx="580" cy="340" r="80" fill="none" stroke="#fff" stroke-width="12" opacity=".62"/>
    <circle cx="580" cy="340" r="40" fill="#fff" opacity=".42"/>
    <path d="M580 200v40M580 440v40M440 340h-40M720 340h40" stroke="#fff" stroke-width="12" stroke-linecap="round" opacity=".52"/>
  </g>
  <g transform="translate(0 0)" direction="rtl">
    <text x="1080" y="122" text-anchor="end" fill="#fff" opacity=".82" font-family="Inter, Cairo, Tajawal, Arial, sans-serif" font-size="28" font-weight="800" letter-spacing="3">DOYOUKNOW.APP</text>
    <text x="1080" y="202" text-anchor="end" fill="#fff" font-family="Inter, Cairo, Tajawal, Arial, sans-serif" font-size="52" font-weight="900">فعاليات دبي هذا الأسبوع</text>
    <text x="1080" y="262" text-anchor="end" fill="#fff" opacity=".86" font-family="Inter, Cairo, Tajawal, Arial, sans-serif" font-size="30" font-weight="700">دبي والإمارات</text>
    <rect x="760" y="300" width="320" height="8" rx="4" fill="#F8FAFC"/>
  </g>
  <g transform="translate(120 542)">
    <rect width="260" height="58" rx="29" fill="#fff" opacity=".14"/>
    <text x="32" y="38" fill="#fff" font-family="Inter, Cairo, Tajawal, Arial, sans-serif" font-size="24" font-weight="800">دبي والإمارات</text>
  </g>
</svg>
