<svg xmlns="http://www.w3.org/2000/svg" width="1200" height="675" viewBox="0 0 1200 675" role="img" aria-labelledby="title desc">
  <title id="title">الديون في الإمارات وحظر السفر — doyouknow.app illustration</title>
  <desc id="desc">Original doyouknow.app editorial artwork for الديون في الإمارات وحظر السفر.</desc>
  <defs>
    <linearGradient id="bg" x1="0" y1="0" x2="1" y2="1">
      <stop offset="0%" stop-color="#0F172A"/>
      <stop offset="50%" stop-color="#334155"/>
      <stop offset="100%" stop-color="#B45309"/>
    </linearGradient>
    <radialGradient id="glow" cx="76%" cy="22%" r="58%">
      <stop offset="0%" stop-color="#fff" stop-opacity=".35"/>
      <stop offset="100%" stop-color="#fff" stop-opacity="0"/>
    </radialGradient>
    <pattern id="dots" width="42" height="42" patternUnits="userSpaceOnUse">
      <circle cx="6" cy="6" r="2.5" fill="#fff" opacity=".16"/>
    </pattern>
    <filter id="shadow" x="-20%" y="-20%" width="140%" height="140%">
      <feDropShadow dx="0" dy="20" stdDeviation="24" flood-color="#020617" flood-opacity=".38"/>
    </filter>
  </defs>
  <rect width="1200" height="675" fill="url(#bg)"/>
  <rect width="1200" height="675" fill="url(#dots)" opacity=".72"/>
  <circle cx="884" cy="170" r="360" fill="url(#glow)"/>
  <path d="M0 520 C160 438 302 560 460 478 C632 388 772 496 936 414 C1049 357 1136 372 1200 338 L1200 675 L0 675Z" fill="#fff" opacity=".13"/>
  <g filter="url(#shadow)">
    <rect x="330" y="180" width="240" height="300" rx="18" fill="#fff" opacity=".16"/><rect x="362" y="226" width="176" height="14" rx="7" fill="#fff" opacity=".5"/><rect x="362" y="268" width="176" height="14" rx="7" fill="#fff" opacity=".35"/><rect x="362" y="310" width="120" height="14" rx="7" fill="#fff" opacity=".35"/><g transform="rotate(-35 790 330)"><rect x="710" y="272" width="170" height="56" rx="14" fill="#fff" opacity=".8"/><rect x="776" y="320" width="34" height="180" rx="15" fill="#fff" opacity=".8"/></g><rect x="640" y="510" width="220" height="22" rx="11" fill="#fff" opacity=".5"/>
  </g>
  <g transform="translate(0 0)" direction="rtl">
    <text x="1080" y="122" text-anchor="end" fill="#fff" opacity=".82" font-family="Inter, Cairo, Tajawal, Arial, sans-serif" font-size="28" font-weight="800" letter-spacing="3">DOYOUKNOW.APP</text>
    <text x="1080" y="202" text-anchor="end" fill="#fff" font-family="Inter, Cairo, Tajawal, Arial, sans-serif" font-size="54" font-weight="900">الديون وحظر السفر في الإمارات</text>
    <text x="1080" y="262" text-anchor="end" fill="#fff" opacity=".86" font-family="Inter, Cairo, Tajawal, Arial, sans-serif" font-size="30" font-weight="700">أدلة عملية في السعودية</text>
    <rect x="760" y="300" width="320" height="8" rx="4" fill="#B45309"/>
  </g>
  <g transform="translate(120 542)">
    <rect width="580" height="58" rx="29" fill="#fff" opacity=".14"/>
    <text x="32" y="38" fill="#fff" font-family="Inter, Cairo, Tajawal, Arial, sans-serif" font-size="24" font-weight="800">أدلة عملية في السعودية</text>
  </g>
</svg>
