<svg xmlns="http://www.w3.org/2000/svg" width="1200" height="675" viewBox="0 0 1200 675" role="img" aria-labelledby="title desc">
  <title id="title">دليل الإقامة الذهبية في الإمارات — doyouknow.app illustration</title>
  <desc id="desc">رسم تحريري من doyouknow.app لمقال دليل الإقامة الذهبية في الإمارات.</desc>
  <defs><linearGradient id="bg" x1="0" y1="0" x2="1" y2="1"><stop offset="0%" stop-color="#1E3A8A"/><stop offset="60%" stop-color="#B45309"/><stop offset="100%" stop-color="#FDE68A"/></linearGradient><filter id="shadow" x="-20%" y="-20%" width="140%" height="140%"><feDropShadow dx="0" dy="20" stdDeviation="24" flood-color="#020617" flood-opacity=".35"/></filter></defs>
  <rect width="1200" height="675" fill="url(#bg)"/><path d="M0 520 C180 420 340 560 520 460 C700 360 850 470 1040 350 C1120 300 1170 310 1200 290 L1200 675 L0 675Z" fill="#fff" opacity=".12"/>
  <g filter="url(#shadow)" transform="translate(352 210)"><rect width="370" height="250" rx="36" fill="#fff" opacity=".18"/><path d="M185 60 250 132 225 220H145L120 132Z" fill="#fff" opacity=".82"/><circle cx="185" cy="132" r="38" fill="#B45309" opacity=".9"/></g>
  <g direction="rtl" unicode-bidi="bidi-override"><text x="1080" y="122" text-anchor="end" fill="#fff" opacity=".82" font-family="Cairo, Tajawal, Arial, sans-serif" font-size="28" font-weight="800" letter-spacing="2">DOYOUKNOW.APP</text><text x="1080" y="214" text-anchor="end" fill="#fff" font-family="Cairo, Tajawal, Arial, sans-serif" font-size="56" font-weight="900">دليل الإقامة الذهبية</text><text x="1080" y="280" text-anchor="end" fill="#fff" opacity=".9" font-family="Cairo, Tajawal, Arial, sans-serif" font-size="34" font-weight="800">في الإمارات</text><rect x="760" y="315" width="320" height="8" rx="4" fill="#fff" opacity=".8"/></g>
</svg>
