<svg xmlns="http://www.w3.org/2000/svg" width="1200" height="675" viewBox="0 0 1200 675" role="img" aria-labelledby="title desc">
  <title id="title">لماذا تستورد الإمارات الرمل؟ — doyouknow.app illustration</title>
  <desc id="desc">رسم تحريري من doyouknow.app لمقال لماذا تستورد الإمارات الرمل؟</desc>
  <defs><linearGradient id="bg" x1="0" y1="0" x2="1" y2="1"><stop offset="0%" stop-color="#78350F"/><stop offset="56%" stop-color="#D97706"/><stop offset="100%" stop-color="#0EA5E9"/></linearGradient><filter id="shadow" x="-20%" y="-20%" width="140%" height="140%"><feDropShadow dx="0" dy="20" stdDeviation="24" flood-color="#020617" flood-opacity=".35"/></filter></defs>
  <rect width="1200" height="675" fill="url(#bg)"/><path d="M0 480 C170 390 330 540 520 430 C700 330 880 460 1200 310 L1200 675 L0 675Z" fill="#FED7AA" opacity=".45"/><path d="M0 560 C170 500 350 610 530 520 C760 410 930 540 1200 430 L1200 675 L0 675Z" fill="#fff" opacity=".16"/>
  <g filter="url(#shadow)" transform="translate(375 230)"><path d="M0 150 C90 20 250 10 430 150 Z" fill="#fff" opacity=".22"/><path d="M80 150 C150 70 260 70 350 150" fill="none" stroke="#fff" stroke-width="18" opacity=".7"/></g>
  <g direction="rtl" unicode-bidi="bidi-override"><text x="1080" y="122" text-anchor="end" fill="#fff" opacity=".82" font-family="Cairo, Tajawal, Arial, sans-serif" font-size="28" font-weight="800" letter-spacing="2">DOYOUKNOW.APP</text><text x="1080" y="214" text-anchor="end" fill="#fff" font-family="Cairo, Tajawal, Arial, sans-serif" font-size="58" font-weight="900">لماذا تستورد الإمارات الرمل؟</text><text x="1080" y="280" text-anchor="end" fill="#fff" opacity=".86" font-family="Cairo, Tajawal, Arial, sans-serif" font-size="30" font-weight="700">حقيقة هندسية غريبة</text><rect x="760" y="315" width="320" height="8" rx="4" fill="#fff" opacity=".8"/></g>
</svg>
