<svg xmlns="http://www.w3.org/2000/svg" width="1200" height="675" viewBox="0 0 1200 675" role="img" aria-labelledby="title desc">
  <title id="title">ما هو Google Gemini؟ شرح مبسط — doyouknow.app illustration</title>
  <desc id="desc">رسم تحريري من doyouknow.app لمقال ما هو Google Gemini؟</desc>
  <defs><linearGradient id="bg" x1="0" y1="0" x2="1" y2="1"><stop offset="0%" stop-color="#1D4ED8"/><stop offset="48%" stop-color="#7C3AED"/><stop offset="100%" stop-color="#B45309"/></linearGradient><filter id="shadow" x="-20%" y="-20%" width="140%" height="140%"><feDropShadow dx="0" dy="20" stdDeviation="24" flood-color="#020617" flood-opacity=".38"/></filter></defs>
  <rect width="1200" height="675" fill="url(#bg)"/><circle cx="250" cy="520" r="260" fill="#fff" opacity=".08"/><circle cx="920" cy="150" r="280" fill="#fff" opacity=".10"/>
  <g filter="url(#shadow)" transform="translate(398 220)"><path d="M170 0 216 124 340 170 216 216 170 340 124 216 0 170 124 124Z" fill="#fff" opacity=".78"/><path d="M170 70 196 144 270 170 196 196 170 270 144 196 70 170 144 144Z" fill="#7C3AED" opacity=".9"/></g>
  <g direction="rtl" unicode-bidi="bidi-override"><text x="1080" y="122" text-anchor="end" fill="#fff" opacity=".82" font-family="Cairo, Tajawal, Arial, sans-serif" font-size="28" font-weight="800" letter-spacing="2">DOYOUKNOW.APP</text><text x="1080" y="214" text-anchor="end" fill="#fff" font-family="Cairo, Tajawal, Arial, sans-serif" font-size="62" font-weight="900">ما هو Google Gemini؟</text><text x="1080" y="280" text-anchor="end" fill="#fff" opacity=".86" font-family="Cairo, Tajawal, Arial, sans-serif" font-size="30" font-weight="700">شرح مبسط</text><rect x="760" y="315" width="320" height="8" rx="4" fill="#fff" opacity=".8"/></g>
</svg>
