<svg xmlns="http://www.w3.org/2000/svg" width="1200" height="675" viewBox="0 0 1200 675" role="img" aria-labelledby="title desc">
  <title id="title">ينبع: ميناء البحر الأحمر بين الصناعة والغوص والتاريخ — doyouknow.app illustration</title>
  <desc id="desc">رسم تحريري أصلي من doyouknow.app لمقال ينبع: ميناء البحر الأحمر بين الصناعة والغوص والتاريخ</desc>
  <defs>
    <linearGradient id="bg" x1="0" y1="0" x2="1" y2="1"><stop offset="0%" stop-color="#0C4A6E"/><stop offset="58%" stop-color="#0E7490"/><stop offset="100%" stop-color="#B45309"/></linearGradient>
    <radialGradient id="glow" cx="24%" cy="22%" r="58%"><stop offset="0%" stop-color="#fff" stop-opacity=".35"/><stop offset="100%" stop-color="#fff" stop-opacity="0"/></radialGradient>
    <pattern id="dots" width="42" height="42" patternUnits="userSpaceOnUse"><circle cx="6" cy="6" r="2.5" fill="#fff" opacity=".16"/></pattern>
    <filter id="shadow" x="-20%" y="-20%" width="140%" height="140%"><feDropShadow dx="0" dy="20" stdDeviation="24" flood-color="#020617" flood-opacity=".38"/></filter>
  </defs>
  <rect width="1200" height="675" fill="url(#bg)"/><rect width="1200" height="675" fill="url(#dots)" opacity=".72"/><circle cx="316" cy="170" r="360" fill="url(#glow)"/>
  <path d="M0 520 C160 438 302 560 460 478 C632 388 772 496 936 414 C1049 357 1136 372 1200 338 L1200 675 L0 675Z" fill="#fff" opacity=".13"/>
  <g filter="url(#shadow)">
    <path d="M840 540V300h-60v240M840 330l-180-60M810 300v-50l-150-40M660 270v-40h-60" fill="none" stroke="#fff" stroke-width="18" stroke-linecap="round" stroke-linejoin="round" opacity=".72"/>
    <path d="M580 540V360h-56v180M580 396l-150-50M552 360v-44l-128-34M424 326v-36h-54" fill="none" stroke="#fff" stroke-width="16" stroke-linecap="round" stroke-linejoin="round" opacity=".62"/>
    <path d="M880 540H280" stroke="#fff" stroke-width="18" stroke-linecap="round" opacity=".72"/>
    <path d="M360 590c40 22 80 22 120 0s80-22 120 0 80 22 120 0 80-22 120 0" fill="none" stroke="#fff" stroke-width="14" stroke-linecap="round" opacity=".5"/>
  </g>
  <g direction="rtl">
    <text x="1080" y="122" text-anchor="end" fill="#fff" opacity=".82" font-family="Inter, Cairo, Tajawal, Arial, sans-serif" font-size="28" font-weight="800" letter-spacing="3">DOYOUKNOW.APP</text>
    <text x="1080" y="202" text-anchor="end" fill="#fff" font-family="Inter, Cairo, Tajawal, Arial, sans-serif" font-size="44" font-weight="900">ينبع: ميناء البحر الأحمر بين الصناعة والغوص والتاريخ</text>
    <text x="1080" y="268" text-anchor="end" fill="#fff" opacity=".86" font-family="Inter, Cairo, Tajawal, Arial, sans-serif" font-size="30" font-weight="700">السعودية: التاريخ والثقافة</text>
    <rect x="760" y="300" width="320" height="8" rx="4" fill="#22D3EE"/>
  </g>
</svg>
