<svg xmlns="http://www.w3.org/2000/svg" width="1200" height="675" viewBox="0 0 1200 675" role="img" aria-labelledby="title desc">
  <title id="title">نادي الزمالك: التاريخ والبطولات وقمة القاهرة — رسم توضيحي من doyouknow.app</title>
  <desc id="desc">رسم تحريري أصلي من doyouknow.app لمقال نادي الزمالك: التاريخ والبطولات وقمة القاهرة.</desc>
  <defs>
    <linearGradient id="bg" x1="0" y1="0" x2="1" y2="1">
      <stop offset="0%" stop-color="#450A0A"/>
      <stop offset="58%" stop-color="#991B1B"/>
      <stop offset="100%" stop-color="#DC2626"/>
    </linearGradient>
    <radialGradient id="glow" cx="76%" cy="22%" r="58%">
      <stop offset="0%" stop-color="#fff" stop-opacity=".35"/>
      <stop offset="100%" stop-color="#fff" stop-opacity="0"/>
    </radialGradient>
    <pattern id="dots" width="42" height="42" patternUnits="userSpaceOnUse">
      <circle cx="6" cy="6" r="2.5" fill="#fff" opacity=".16"/>
    </pattern>
    <filter id="shadow" x="-20%" y="-20%" width="140%" height="140%">
      <feDropShadow dx="0" dy="20" stdDeviation="24" flood-color="#020617" flood-opacity=".38"/>
    </filter>
  </defs>
  <rect width="1200" height="675" fill="url(#bg)"/>
  <rect width="1200" height="675" fill="url(#dots)" opacity=".72"/>
  <circle cx="884" cy="170" r="360" fill="url(#glow)"/>
  <path d="M0 520 C160 438 302 560 460 478 C632 388 772 496 936 414 C1049 357 1136 372 1200 338 L1200 675 L0 675Z" fill="#fff" opacity=".13"/>
  <g filter="url(#shadow)" transform="translate(0 0)">
    <path d="M880 170 L1050 225 V380 C1050 505 965 565 880 605 C795 565 710 505 710 380 V225 Z" fill="#fff" opacity=".93"/>
    <rect x="806" y="272" width="34" height="150" rx="14" fill="#B91C1C"/>
    <rect x="920" y="272" width="34" height="150" rx="14" fill="#B91C1C"/>
    <circle cx="880" cy="505" r="36" fill="none" stroke="#B91C1C" stroke-width="10"/>
    <circle cx="880" cy="505" r="13" fill="#B91C1C"/>
  </g>
  <g transform="translate(0 0)" direction="rtl">
    <text x="1080" y="122" text-anchor="end" fill="#fff" opacity=".82" font-family="Inter, Cairo, Tajawal, Arial, sans-serif" font-size="28" font-weight="800" letter-spacing="3">DOYOUKNOW.APP</text>
    <text x="1080" y="202" text-anchor="end" fill="#fff" font-family="Inter, Cairo, Tajawal, Arial, sans-serif" font-size="52" font-weight="900">نادي الزمالك: التاريخ والبطولات وقمة القاهرة</text>
    <text x="1080" y="262" text-anchor="end" fill="#fff" opacity=".86" font-family="Inter, Cairo, Tajawal, Arial, sans-serif" font-size="30" font-weight="700">مصر</text>
    <rect x="760" y="300" width="320" height="8" rx="4" fill="#FCA5A5"/>
  </g>
  <g transform="translate(120 542)">
    <rect width="386" height="58" rx="29" fill="#fff" opacity=".14"/>
    <text x="32" y="38" fill="#fff" font-family="Inter, Cairo, Tajawal, Arial, sans-serif" font-size="24" font-weight="800">مصر</text>
  </g>
</svg>
