<svg xmlns="http://www.w3.org/2000/svg" width="1200" height="675" viewBox="0 0 1200 675" role="img" aria-labelledby="title desc">
  <title id="title">AFC Champions League Elite: Format, Saudi Clubs, and Records — doyouknow.app illustration</title>
  <desc id="desc">Original doyouknow.app editorial artwork for AFC Champions League Elite: Format, Saudi Clubs, and Records.</desc>
  <defs>
    <linearGradient id="bg" x1="0" y1="0" x2="1" y2="1"><stop offset="0%" stop-color="#052E16"/><stop offset="58%" stop-color="#0F766E"/><stop offset="100%" stop-color="#D97706"/></linearGradient>
    <radialGradient id="glow" cx="76%" cy="22%" r="58%"><stop offset="0%" stop-color="#fff" stop-opacity=".35"/><stop offset="100%" stop-color="#fff" stop-opacity="0"/></radialGradient>
    <pattern id="dots" width="42" height="42" patternUnits="userSpaceOnUse"><circle cx="6" cy="6" r="2.5" fill="#fff" opacity=".16"/></pattern>
    <filter id="shadow" x="-20%" y="-20%" width="140%" height="140%"><feDropShadow dx="0" dy="20" stdDeviation="24" flood-color="#020617" flood-opacity=".38"/></filter>
  </defs>
  <rect width="1200" height="675" fill="url(#bg)"/><rect width="1200" height="675" fill="url(#dots)" opacity=".72"/><circle cx="884" cy="170" r="360" fill="url(#glow)"/>
  <path d="M0 520 C160 438 302 560 460 478 C632 388 772 496 936 414 C1049 357 1136 372 1200 338 L1200 675 L0 675Z" fill="#fff" opacity=".13"/>
  <g filter="url(#shadow)" fill="none" stroke="#fff" stroke-linecap="round" stroke-linejoin="round" opacity=".8">
    <path d="M520 150 H680 V230 C680 300 640 340 600 340 C560 340 520 300 520 230 Z" stroke-width="18"/>
    <path d="M520 180 H452 C452 250 486 280 528 286" stroke-width="14"/>
    <path d="M680 180 H748 C748 250 714 280 672 286" stroke-width="14"/>
    <path d="M600 340 V410" stroke-width="18"/>
    <path d="M548 410 H652" stroke-width="18"/>
    <path d="M528 452 H672" stroke-width="18"/>
    <path d="M600 196 L612 224 H642 L618 242 L628 272 L600 254 L572 272 L582 242 L558 224 H588 Z" fill="#fff" stroke="none" opacity=".92"/>
  </g>
  <text x="120" y="122" text-anchor="start" fill="#fff" opacity=".82" font-family="Inter, Arial, sans-serif" font-size="28" font-weight="800" letter-spacing="3">DOYOUKNOW.APP</text>
  <text x="120" y="202" text-anchor="start" fill="#fff" font-family="Inter, Arial, sans-serif" font-size="50" font-weight="900">AFC Champions League Elite</text>
  <text x="120" y="262" text-anchor="start" fill="#fff" opacity=".86" font-family="Inter, Arial, sans-serif" font-size="30" font-weight="700">Saudi Arabia</text>
  <rect x="120" y="300" width="320" height="8" rx="4" fill="#D97706"/>
</svg>
