<svg xmlns="http://www.w3.org/2000/svg" width="1200" height="675" viewBox="0 0 1200 675" role="img" aria-labelledby="title desc">
  <title id="title">Du vs Etisalat: SIM Cards and Mobile Plans in the UAE — doyouknow.app illustration</title>
  <desc id="desc">Original doyouknow.app editorial artwork for Du vs Etisalat: SIM Cards and Mobile Plans in the UAE.</desc>
  <defs>
    <linearGradient id="bg" x1="0" y1="0" x2="1" y2="1">
      <stop offset="0%" stop-color="#123C69"/>
      <stop offset="58%" stop-color="#22C55E"/>
      <stop offset="100%" stop-color="#F59E0B"/>
    </linearGradient>
    <radialGradient id="glow" cx="76%" cy="22%" r="58%">
      <stop offset="0%" stop-color="#fff" stop-opacity=".35"/>
      <stop offset="100%" stop-color="#fff" stop-opacity="0"/>
    </radialGradient>
    <pattern id="dots" width="42" height="42" patternUnits="userSpaceOnUse">
      <circle cx="6" cy="6" r="2.5" fill="#fff" opacity=".16"/>
    </pattern>
    <filter id="shadow" x="-20%" y="-20%" width="140%" height="140%">
      <feDropShadow dx="0" dy="20" stdDeviation="24" flood-color="#020617" flood-opacity=".38"/>
    </filter>
  </defs>
  <rect width="1200" height="675" fill="url(#bg)"/>
  <rect width="1200" height="675" fill="url(#dots)" opacity=".72"/>
  <circle cx="884" cy="170" r="360" fill="url(#glow)"/>
  <path d="M0 520 C160 438 302 560 460 478 C632 388 772 496 936 414 C1049 357 1136 372 1200 338 L1200 675 L0 675Z" fill="#fff" opacity=".13"/>
  <g filter="url(#shadow)" transform="translate(0 0)">
    <path d="M350 190h392c33 0 60 27 60 60v246c0 33-27 60-60 60H350c-33 0-60-27-60-60V250c0-33 27-60 60-60Z" fill="#fff" opacity=".16"/><path d="M378 284h336M378 356h336M378 428h222" stroke="#fff" stroke-width="18" stroke-linecap="round" opacity=".72"/><path d="m734 410 47 47 88-105" fill="none" stroke="#fff" stroke-width="22" stroke-linecap="round" stroke-linejoin="round" opacity=".82"/>
  </g>
  <g transform="translate(0 0)" direction="ltr">
    <text x="120" y="122" text-anchor="start" fill="#fff" opacity=".82" font-family="Inter, Cairo, Tajawal, Arial, sans-serif" font-size="28" font-weight="800" letter-spacing="3">DOYOUKNOW.APP</text>
    <text x="120" y="202" text-anchor="start" fill="#fff" font-family="Inter, Cairo, Tajawal, Arial, sans-serif" font-size="56" font-weight="900">Du vs Etisalat: SIM Cards and Mobile Plans in the UAE</text>
    <text x="120" y="262" text-anchor="start" fill="#fff" opacity=".86" font-family="Inter, Cairo, Tajawal, Arial, sans-serif" font-size="30" font-weight="700">Practical Guide</text>
    <rect x="120" y="300" width="320" height="8" rx="4" fill="#F59E0B"/>
  </g>
  <g transform="translate(120 542)">
    <rect width="386" height="58" rx="29" fill="#fff" opacity=".14"/>
    <text x="32" y="38" fill="#fff" font-family="Inter, Cairo, Tajawal, Arial, sans-serif" font-size="24" font-weight="800">Practical Guide</text>
  </g>
</svg>
