<svg xmlns="http://www.w3.org/2000/svg" width="1200" height="675" viewBox="0 0 1200 675" role="img" aria-labelledby="title desc">
  <title id="title">The Egyptian Pound Explained: Why It Rises and Falls — doyouknow.app illustration</title>
  <desc id="desc">Original doyouknow.app editorial artwork for The Egyptian Pound Explained: Why It Rises and Falls.</desc>
  <defs>
    <linearGradient id="bg" x1="0" y1="0" x2="1" y2="1">
      <stop offset="0%" stop-color="#052E16"/>
      <stop offset="58%" stop-color="#065F46"/>
      <stop offset="100%" stop-color="#10B981"/>
    </linearGradient>
    <radialGradient id="glow" cx="76%" cy="22%" r="58%">
      <stop offset="0%" stop-color="#fff" stop-opacity=".35"/>
      <stop offset="100%" stop-color="#fff" stop-opacity="0"/>
    </radialGradient>
    <pattern id="dots" width="42" height="42" patternUnits="userSpaceOnUse">
      <circle cx="6" cy="6" r="2.5" fill="#fff" opacity=".16"/>
    </pattern>
    <filter id="shadow" x="-20%" y="-20%" width="140%" height="140%">
      <feDropShadow dx="0" dy="20" stdDeviation="24" flood-color="#020617" flood-opacity=".38"/>
    </filter>
  </defs>
  <rect width="1200" height="675" fill="url(#bg)"/>
  <rect width="1200" height="675" fill="url(#dots)" opacity=".72"/>
  <circle cx="884" cy="170" r="360" fill="url(#glow)"/>
  <path d="M0 520 C160 438 302 560 460 478 C632 388 772 496 936 414 C1049 357 1136 372 1200 338 L1200 675 L0 675Z" fill="#fff" opacity=".13"/>
  <g filter="url(#shadow)" transform="translate(0 0)">
    <path d="M790 200 C830 158 930 158 970 200" fill="none" stroke="#FBBF24" stroke-width="14" stroke-linecap="round"/>
    <path d="M970 200 l-30 -13 l7 26 Z" fill="#FBBF24"/>
    <path d="M970 248 C930 290 830 290 790 248" fill="none" stroke="#FBBF24" stroke-width="14" stroke-linecap="round"/>
    <path d="M790 248 l30 13 l-7 -26 Z" fill="#FBBF24"/>
    <rect x="700" y="330" width="360" height="200" rx="24" fill="#fff" opacity=".93"/>
    <rect x="724" y="354" width="312" height="152" rx="16" fill="none" stroke="#065F46" stroke-width="8" opacity=".7"/>
    <circle cx="880" cy="430" r="46" fill="#10B981" opacity=".9"/>
    <circle cx="762" cy="392" r="12" fill="#065F46" opacity=".55"/>
    <circle cx="762" cy="468" r="12" fill="#065F46" opacity=".55"/>
    <circle cx="998" cy="392" r="12" fill="#065F46" opacity=".55"/>
    <circle cx="998" cy="468" r="12" fill="#065F46" opacity=".55"/>
  </g>
  <g transform="translate(0 0)" direction="ltr">
    <text x="120" y="122" text-anchor="start" fill="#fff" opacity=".82" font-family="Inter, Cairo, Tajawal, Arial, sans-serif" font-size="28" font-weight="800" letter-spacing="3">DOYOUKNOW.APP</text>
    <text x="120" y="202" text-anchor="start" fill="#fff" font-family="Inter, Cairo, Tajawal, Arial, sans-serif" font-size="48" font-weight="900">The Egyptian Pound Explained: Why It Rises and Falls</text>
    <text x="120" y="262" text-anchor="start" fill="#fff" opacity=".86" font-family="Inter, Cairo, Tajawal, Arial, sans-serif" font-size="30" font-weight="700">Business &amp; Marketing</text>
    <rect x="120" y="300" width="320" height="8" rx="4" fill="#FBBF24"/>
  </g>
  <g transform="translate(120 542)">
    <rect width="386" height="58" rx="29" fill="#fff" opacity=".14"/>
    <text x="32" y="38" fill="#fff" font-family="Inter, Cairo, Tajawal, Arial, sans-serif" font-size="24" font-weight="800">Business &amp; Marketing</text>
  </g>
</svg>
