<svg xmlns="http://www.w3.org/2000/svg" width="1200" height="675" viewBox="0 0 1200 675" role="img" aria-labelledby="title desc">
  <title id="title">Gold Prices in Saudi Arabia: Karats, Drivers, Buying Tips — doyouknow.app illustration</title>
  <desc id="desc">Original doyouknow.app editorial artwork for Gold Prices in Saudi Arabia: Karats, Drivers, Buying Tips.</desc>
  <defs>
    <linearGradient id="bg" x1="0" y1="0" x2="1" y2="1"><stop offset="0%" stop-color="#451A03"/><stop offset="58%" stop-color="#B45309"/><stop offset="100%" stop-color="#F59E0B"/></linearGradient>
    <radialGradient id="glow" cx="76%" cy="22%" r="58%"><stop offset="0%" stop-color="#fff" stop-opacity=".35"/><stop offset="100%" stop-color="#fff" stop-opacity="0"/></radialGradient>
    <pattern id="dots" width="42" height="42" patternUnits="userSpaceOnUse"><circle cx="6" cy="6" r="2.5" fill="#fff" opacity=".16"/></pattern>
    <filter id="shadow" x="-20%" y="-20%" width="140%" height="140%"><feDropShadow dx="0" dy="20" stdDeviation="24" flood-color="#020617" flood-opacity=".38"/></filter>
  </defs>
  <rect width="1200" height="675" fill="url(#bg)"/><rect width="1200" height="675" fill="url(#dots)" opacity=".72"/><circle cx="884" cy="170" r="360" fill="url(#glow)"/>
  <path d="M0 520 C160 438 302 560 460 478 C632 388 772 496 936 414 C1049 357 1136 372 1200 338 L1200 675 L0 675Z" fill="#fff" opacity=".13"/>
  <g filter="url(#shadow)" opacity=".88">
    <path d="M450 430 L490 350 H610 L650 430 Z" fill="none" stroke="#fff" stroke-width="16" stroke-linejoin="round"/>
    <path d="M660 430 L700 350 H820 L860 430 Z" fill="none" stroke="#fff" stroke-width="16" stroke-linejoin="round"/>
    <path d="M555 350 L595 270 H715 L755 350 Z" fill="none" stroke="#fff" stroke-width="16" stroke-linejoin="round"/>
    <path d="M525 396 H575 M735 396 H785 M630 316 H680" stroke="#fff" stroke-width="10" stroke-linecap="round" opacity=".7"/>
    <path d="M470 190 C540 160 640 150 740 176 C800 191 850 220 884 258" fill="none" stroke="#fff" stroke-width="14" stroke-linecap="round" opacity=".6"/>
    <path d="M850 214 L888 260 L830 268" fill="none" stroke="#fff" stroke-width="14" stroke-linecap="round" stroke-linejoin="round" opacity=".6"/>
  </g>
  <text x="120" y="122" text-anchor="start" fill="#fff" opacity=".82" font-family="Inter, Arial, sans-serif" font-size="28" font-weight="800" letter-spacing="3">DOYOUKNOW.APP</text>
  <text x="120" y="202" text-anchor="start" fill="#fff" font-family="Inter, Arial, sans-serif" font-size="52" font-weight="900">Gold Prices in Saudi Arabia</text>
  <text x="120" y="262" text-anchor="start" fill="#fff" opacity=".86" font-family="Inter, Arial, sans-serif" font-size="30" font-weight="700">Business &amp; Marketing</text>
  <rect x="120" y="300" width="320" height="8" rx="4" fill="#F59E0B"/>
</svg>
