<svg xmlns="http://www.w3.org/2000/svg" width="1200" height="675" viewBox="0 0 1200 675" role="img" aria-labelledby="title desc">
  <title id="title">Why Huawei Phones Have No Google Services, Explained — doyouknow.app illustration</title>
  <desc id="desc">Original doyouknow.app editorial artwork for Why Huawei Phones Have No Google Services, Explained.</desc>
  <defs>
    <linearGradient id="bg" x1="0" y1="0" x2="1" y2="1"><stop offset="0%" stop-color="#7F1D1D"/><stop offset="58%" stop-color="#DC2626"/><stop offset="100%" stop-color="#0F172A"/></linearGradient>
    <radialGradient id="glow" cx="76%" cy="22%" r="58%"><stop offset="0%" stop-color="#fff" stop-opacity=".35"/><stop offset="100%" stop-color="#fff" stop-opacity="0"/></radialGradient>
    <pattern id="dots" width="42" height="42" patternUnits="userSpaceOnUse"><circle cx="6" cy="6" r="2.5" fill="#fff" opacity=".16"/></pattern>
    <filter id="shadow" x="-20%" y="-20%" width="140%" height="140%"><feDropShadow dx="0" dy="20" stdDeviation="24" flood-color="#020617" flood-opacity=".38"/></filter>
  </defs>
  <rect width="1200" height="675" fill="url(#bg)"/><rect width="1200" height="675" fill="url(#dots)" opacity=".72"/><circle cx="884" cy="170" r="360" fill="url(#glow)"/>
  <path d="M0 520 C160 438 302 560 460 478 C632 388 772 496 936 414 C1049 357 1136 372 1200 338 L1200 675 L0 675Z" fill="#fff" opacity=".13"/>
  <g filter="url(#shadow)" fill="none" stroke="#fff" stroke-linecap="round" opacity=".82">
    <rect x="500" y="120" width="200" height="420" rx="36" stroke-width="18"/>
    <path d="M572 156 H628" stroke-width="12"/>
    <circle cx="600" cy="496" r="14" stroke-width="10"/>
    <path d="M536 220 H664 M536 268 H664 M536 316 H624" stroke-width="14" opacity=".65"/>
    <path d="M528 384 L672 384" stroke-width="14" opacity=".45"/>
    <path d="M528 430 L560 462 M560 430 L528 462" stroke-width="12" opacity=".8"/>
    <path d="M640 430 L672 462 M672 430 L640 462" stroke-width="12" opacity=".8"/>
  </g>
  <text x="120" y="122" text-anchor="start" fill="#fff" opacity=".82" font-family="Inter, Arial, sans-serif" font-size="28" font-weight="800" letter-spacing="3">DOYOUKNOW.APP</text>
  <text x="120" y="202" text-anchor="start" fill="#fff" font-family="Inter, Arial, sans-serif" font-size="50" font-weight="900">Huawei &amp; Google Services, Explained</text>
  <text x="120" y="262" text-anchor="start" fill="#fff" opacity=".86" font-family="Inter, Arial, sans-serif" font-size="30" font-weight="700">Technology Explained</text>
  <rect x="120" y="300" width="320" height="8" rx="4" fill="#DC2626"/>
</svg>
