<svg xmlns="http://www.w3.org/2000/svg" width="1200" height="675" viewBox="0 0 1200 675" role="img" aria-labelledby="title desc">
  <title id="title">How Prayer Times Are Calculated: Sun Angles and Methods — doyouknow.app illustration</title>
  <desc id="desc">Original doyouknow.app editorial artwork for How Prayer Times Are Calculated: Sun Angles and Methods.</desc>
  <defs>
    <linearGradient id="bg" x1="0" y1="0" x2="1" y2="1">
      <stop offset="0%" stop-color="#312E81"/>
      <stop offset="58%" stop-color="#6366F1"/>
      <stop offset="100%" stop-color="#FBBF24"/>
    </linearGradient>
    <radialGradient id="glow" cx="76%" cy="22%" r="58%">
      <stop offset="0%" stop-color="#fff" stop-opacity=".35"/>
      <stop offset="100%" stop-color="#fff" stop-opacity="0"/>
    </radialGradient>
    <pattern id="dots" width="42" height="42" patternUnits="userSpaceOnUse">
      <circle cx="6" cy="6" r="2.5" fill="#fff" opacity=".16"/>
    </pattern>
    <filter id="shadow" x="-20%" y="-20%" width="140%" height="140%">
      <feDropShadow dx="0" dy="20" stdDeviation="24" flood-color="#020617" flood-opacity=".38"/>
    </filter>
  </defs>
  <rect width="1200" height="675" fill="url(#bg)"/>
  <rect width="1200" height="675" fill="url(#dots)" opacity=".72"/>
  <circle cx="884" cy="170" r="360" fill="url(#glow)"/>
  <path d="M0 520 C160 438 302 560 460 478 C632 388 772 496 936 414 C1049 357 1136 372 1200 338 L1200 675 L0 675Z" fill="#fff" opacity=".13"/>
  <g filter="url(#shadow)" transform="translate(0 0)">
    <path d="M940 112a74 74 0 1 0 0 138 60 60 0 1 1 0-138Z" fill="#fff" fill-rule="evenodd" opacity=".85"/>
<path d="M300 470h340" stroke="#fff" stroke-width="16" stroke-linecap="round" opacity=".72"/>
<circle cx="470" cy="346" r="52" fill="none" stroke="#fff" stroke-width="16" opacity=".8"/>
<path d="M452 400 A118 118 0 0 1 380 524" fill="none" stroke="#fff" stroke-width="12" stroke-dasharray="10 14" opacity=".65"/>
<path d="M470 346v124" stroke="#fff" stroke-width="10" stroke-dasharray="8 12" opacity=".45"/>
<text x="506" y="548" fill="#fff" opacity=".85" font-family="Inter, Cairo, Tajawal, Arial, sans-serif" font-size="32" font-weight="800">18°</text>
  </g>
  <g transform="translate(0 0)" direction="ltr">
    <text x="120" y="122" text-anchor="start" fill="#fff" opacity=".82" font-family="Inter, Cairo, Tajawal, Arial, sans-serif" font-size="28" font-weight="800" letter-spacing="3">DOYOUKNOW.APP</text>
    <text x="120" y="202" text-anchor="start" fill="#fff" font-family="Inter, Cairo, Tajawal, Arial, sans-serif" font-size="46" font-weight="900">How Prayer Times Are Calculated</text>
    <text x="120" y="262" text-anchor="start" fill="#fff" opacity=".86" font-family="Inter, Cairo, Tajawal, Arial, sans-serif" font-size="30" font-weight="700">Sun Angles &amp; Methods</text>
    <rect x="120" y="300" width="320" height="8" rx="4" fill="#FDE68A"/>
  </g>
  <g transform="translate(120 542)">
    <rect width="289" height="58" rx="29" fill="#fff" opacity=".14"/>
    <text x="32" y="38" fill="#fff" font-family="Inter, Cairo, Tajawal, Arial, sans-serif" font-size="24" font-weight="800">Islamic Knowledge</text>
  </g>
</svg>
