<svg xmlns="http://www.w3.org/2000/svg" width="1200" height="675" viewBox="0 0 1200 675" role="img" aria-labelledby="title desc">
  <title id="title">Saudi Arabian Cuisine Guide: Traditional Dishes, Regional Food &amp; Where to Eat — doyouknow.app illustration</title>
  <desc id="desc">Original doyouknow.app editorial artwork for Saudi Arabian Cuisine Guide.</desc>
  <defs>
    <linearGradient id="bg" x1="0" y1="0" x2="1" y2="1">
      <stop offset="0%" stop-color="#1B4332"/>
      <stop offset="50%" stop-color="#D4A373"/>
      <stop offset="100%" stop-color="#BC4749"/>
    </linearGradient>
    <radialGradient id="glow" cx="76%" cy="22%" r="58%">
      <stop offset="0%" stop-color="#fff" stop-opacity=".35"/>
      <stop offset="100%" stop-color="#fff" stop-opacity="0"/>
    </radialGradient>
    <pattern id="dots" width="42" height="42" patternUnits="userSpaceOnUse">
      <circle cx="6" cy="6" r="2.5" fill="#fff" opacity=".16"/>
    </pattern>
    <filter id="shadow" x="-20%" y="-20%" width="140%" height="140%">
      <feDropShadow dx="0" dy="20" stdDeviation="24" flood-color="#020617" flood-opacity=".38"/>
    </filter>
  </defs>
  <rect width="1200" height="675" fill="url(#bg)"/>
  <rect width="1200" height="675" fill="url(#dots)" opacity=".72"/>
  <circle cx="884" cy="170" r="360" fill="url(#glow)"/>
  <path d="M0 520 C160 438 302 560 460 478 C632 388 772 496 936 414 C1049 357 1136 372 1200 338 L1200 675 L0 675Z" fill="#fff" opacity=".13"/>
  <g filter="url(#shadow)" transform="translate(0 0)">
    <circle cx="400" cy="360" r="80" fill="none" stroke="#fff" stroke-width="12" opacity=".72"/>
    <circle cx="400" cy="360" r="30" fill="#D4A373" opacity=".9"/>
    <path d="M520 280v160c0 20 40 20 40 0V280c0-20-40-20-40 0z" fill="none" stroke="#fff" stroke-width="12" opacity=".72"/>
    <path d="M620 320v120c0 20 40 20 40 0V320c0-20-40-20-40 0z" fill="none" stroke="#fff" stroke-width="12" opacity=".72"/>
  </g>
  <g transform="translate(0 0)" direction="ltr">
    <text x="120" y="122" text-anchor="start" fill="#fff" opacity=".82" font-family="Inter, Cairo, Tajawal, Arial, sans-serif" font-size="28" font-weight="800" letter-spacing="3">DOYOUKNOW.APP</text>
    <text x="120" y="202" text-anchor="start" fill="#fff" font-family="Inter, Cairo, Tajawal, Arial, sans-serif" font-size="52" font-weight="900">Saudi Arabian Cuisine Guide: Traditional Dishes, Regional Food &amp; Where to Eat</text>
    <text x="120" y="262" text-anchor="start" fill="#fff" opacity=".86" font-family="Inter, Cairo, Tajawal, Arial, sans-serif" font-size="30" font-weight="700">Saudi Arabia</text>
    <rect x="120" y="300" width="320" height="8" rx="4" fill="#D4A373"/>
  </g>
  <g transform="translate(120 542)">
    <rect width="240" height="58" rx="29" fill="#fff" opacity=".14"/>
    <text x="32" y="38" fill="#fff" font-family="Inter, Cairo, Tajawal, Arial, sans-serif" font-size="24" font-weight="800">Saudi Arabia</text>
  </g>
</svg>
