<svg xmlns="http://www.w3.org/2000/svg" width="1200" height="675" viewBox="0 0 1200 675" role="img" aria-labelledby="title desc">
  <title id="title">Saudi Public Prosecution and the Attorney General, Explained — doyouknow.app illustration</title>
  <desc id="desc">Original doyouknow.app editorial artwork for Saudi Public Prosecution and the Attorney General, Explained.</desc>
  <defs>
    <linearGradient id="bg" x1="0" y1="0" x2="1" y2="1"><stop offset="0%" stop-color="#0F172A"/><stop offset="58%" stop-color="#3730A3"/><stop offset="100%" stop-color="#B45309"/></linearGradient>
    <radialGradient id="glow" cx="76%" cy="22%" r="58%"><stop offset="0%" stop-color="#fff" stop-opacity=".35"/><stop offset="100%" stop-color="#fff" stop-opacity="0"/></radialGradient>
    <pattern id="dots" width="42" height="42" patternUnits="userSpaceOnUse"><circle cx="6" cy="6" r="2.5" fill="#fff" opacity=".16"/></pattern>
    <filter id="shadow" x="-20%" y="-20%" width="140%" height="140%"><feDropShadow dx="0" dy="20" stdDeviation="24" flood-color="#020617" flood-opacity=".38"/></filter>
  </defs>
  <rect width="1200" height="675" fill="url(#bg)"/><rect width="1200" height="675" fill="url(#dots)" opacity=".72"/><circle cx="884" cy="170" r="360" fill="url(#glow)"/>
  <path d="M0 520 C160 438 302 560 460 478 C632 388 772 496 936 414 C1049 357 1136 372 1200 338 L1200 675 L0 675Z" fill="#fff" opacity=".13"/>
  <g filter="url(#shadow)" fill="none" stroke="#fff" stroke-linecap="round" stroke-linejoin="round" opacity=".78">
    <path d="M600 168 V486" stroke-width="18"/>
    <path d="M536 486 H664" stroke-width="18"/>
    <path d="M432 224 H768" stroke-width="16"/>
    <circle cx="600" cy="152" r="17" fill="#fff" stroke="none" opacity=".9"/>
    <path d="M432 224 L388 336 M432 224 L476 336" stroke-width="10"/>
    <path d="M768 224 L724 336 M768 224 L812 336" stroke-width="10"/>
    <path d="M366 336 A56 34 0 0 0 498 336" stroke-width="14"/>
    <path d="M702 336 A56 34 0 0 0 834 336" stroke-width="14"/>
  </g>
  <text x="120" y="122" text-anchor="start" fill="#fff" opacity=".82" font-family="Inter, Arial, sans-serif" font-size="28" font-weight="800" letter-spacing="3">DOYOUKNOW.APP</text>
  <text x="120" y="202" text-anchor="start" fill="#fff" font-family="Inter, Arial, sans-serif" font-size="50" font-weight="900">Saudi Public Prosecution, Explained</text>
  <text x="120" y="262" text-anchor="start" fill="#fff" opacity=".86" font-family="Inter, Arial, sans-serif" font-size="30" font-weight="700">Saudi Practical Guides</text>
  <rect x="120" y="300" width="320" height="8" rx="4" fill="#B45309"/>
</svg>
