<svg xmlns="http://www.w3.org/2000/svg" width="1200" height="675" viewBox="0 0 1200 675" role="img" aria-labelledby="title desc">
  <title id="title">UAE Fuel Prices Explained: Monthly Updates and Grades — doyouknow.app illustration</title>
  <desc id="desc">Original doyouknow.app editorial artwork for UAE Fuel Prices Explained: Monthly Updates and Grades.</desc>
  <defs>
    <linearGradient id="bg" x1="0" y1="0" x2="1" y2="1">
      <stop offset="0%" stop-color="#7C2D12"/>
      <stop offset="58%" stop-color="#F97316"/>
      <stop offset="100%" stop-color="#FDE68A"/>
    </linearGradient>
    <radialGradient id="glow" cx="76%" cy="22%" r="58%">
      <stop offset="0%" stop-color="#fff" stop-opacity=".35"/>
      <stop offset="100%" stop-color="#fff" stop-opacity="0"/>
    </radialGradient>
    <pattern id="dots" width="42" height="42" patternUnits="userSpaceOnUse">
      <circle cx="6" cy="6" r="2.5" fill="#fff" opacity=".16"/>
    </pattern>
    <filter id="shadow" x="-20%" y="-20%" width="140%" height="140%">
      <feDropShadow dx="0" dy="20" stdDeviation="24" flood-color="#020617" flood-opacity=".38"/>
    </filter>
  </defs>
  <rect width="1200" height="675" fill="url(#bg)"/>
  <rect width="1200" height="675" fill="url(#dots)" opacity=".72"/>
  <circle cx="884" cy="170" r="360" fill="url(#glow)"/>
  <path d="M0 520 C160 438 302 560 460 478 C632 388 772 496 936 414 C1049 357 1136 372 1200 338 L1200 675 L0 675Z" fill="#fff" opacity=".13"/>
  <g filter="url(#shadow)" transform="translate(0 0)">
    <path d="M470 220h170c14 0 26 12 26 26v224H444V246c0-14 12-26 26-26Z" fill="#fff" opacity=".16"/>
<path d="M470 220h170c14 0 26 12 26 26v224H444V246c0-14 12-26 26-26Z" fill="none" stroke="#fff" stroke-width="16" opacity=".7"/>
<rect x="480" y="258" width="150" height="88" rx="12" fill="#fff" opacity=".32"/>
<path d="M420 500h270" stroke="#fff" stroke-width="20" stroke-linecap="round" opacity=".72"/>
<path d="M666 300h66c22 0 40 18 40 40v146c0 17-13 30-30 30s-30-13-30-30V360" fill="none" stroke="#fff" stroke-width="20" stroke-linecap="round" opacity=".8"/>
<path d="M555 392c-17 23-27 35-27 49a27 27 0 1 0 54 0c0-14-10-26-27-49Z" fill="#fff" opacity=".75"/>
  </g>
  <g transform="translate(0 0)" direction="ltr">
    <text x="120" y="122" text-anchor="start" fill="#fff" opacity=".82" font-family="Inter, Cairo, Tajawal, Arial, sans-serif" font-size="28" font-weight="800" letter-spacing="3">DOYOUKNOW.APP</text>
    <text x="120" y="202" text-anchor="start" fill="#fff" font-family="Inter, Cairo, Tajawal, Arial, sans-serif" font-size="54" font-weight="900">UAE Fuel Prices Explained</text>
    <text x="120" y="262" text-anchor="start" fill="#fff" opacity=".86" font-family="Inter, Cairo, Tajawal, Arial, sans-serif" font-size="30" font-weight="700">Monthly Updates &amp; Grades</text>
    <rect x="120" y="300" width="320" height="8" rx="4" fill="#FDE68A"/>
  </g>
  <g transform="translate(120 542)">
    <rect width="334" height="58" rx="29" fill="#fff" opacity=".14"/>
    <text x="32" y="38" fill="#fff" font-family="Inter, Cairo, Tajawal, Arial, sans-serif" font-size="24" font-weight="800">UAE Practical Guides</text>
  </g>
</svg>
