<svg xmlns="http://www.w3.org/2000/svg" width="1200" height="675" viewBox="0 0 1200 675" role="img" aria-labelledby="title desc">
  <title id="title">Umrah: A Step-by-Step Guide — Everything You Need to Know Before You Travel — doyouknow.app illustration</title>
  <desc id="desc">Original doyouknow.app editorial artwork for Umrah: A Step-by-Step Guide — Everything You Need to Know Before You Travel.</desc>
  <defs>
    <linearGradient id="bg" x1="0" y1="0" x2="1" y2="1">
      <stop offset="0%" stop-color="#0F766E"/>
      <stop offset="58%" stop-color="#14B8A6"/>
      <stop offset="100%" stop-color="#FDE68A"/>
    </linearGradient>
    <radialGradient id="glow" cx="76%" cy="22%" r="58%">
      <stop offset="0%" stop-color="#fff" stop-opacity=".35"/>
      <stop offset="100%" stop-color="#fff" stop-opacity="0"/>
    </radialGradient>
    <pattern id="dots" width="42" height="42" patternUnits="userSpaceOnUse">
      <circle cx="6" cy="6" r="2.5" fill="#fff" opacity=".16"/>
    </pattern>
    <filter id="shadow" x="-20%" y="-20%" width="140%" height="140%">
      <feDropShadow dx="0" dy="20" stdDeviation="24" flood-color="#020617" flood-opacity=".38"/>
    </filter>
  </defs>
  <rect width="1200" height="675" fill="url(#bg)"/>
  <rect width="1200" height="675" fill="url(#dots)" opacity=".72"/>
  <circle cx="884" cy="170" r="360" fill="url(#glow)"/>
  <path d="M0 520 C160 438 302 560 460 478 C632 388 772 496 936 414 C1049 357 1136 372 1200 338 L1200 675 L0 675Z" fill="#fff" opacity=".13"/>
  <g filter="url(#shadow)" transform="translate(0 0)">
    <path d="M600 170c-90 0-160 70-160 160 0 70 45 130 110 155" fill="none" stroke="#fff" stroke-width="18" stroke-linecap="round" opacity=".55"/><path d="M780 200c40 30 65 75 65 125 0 35-10 65-30 90" fill="none" stroke="#fff" stroke-width="16" stroke-linecap="round" opacity=".45"/><circle cx="780" cy="210" r="50" fill="#fff" opacity=".2"/><path d="M330 520h520" stroke="#fff" stroke-width="18" stroke-linecap="round" opacity=".55"/>
  </g>
  <g transform="translate(0 0)" direction="ltr">
    <text x="120" y="122" text-anchor="start" fill="#fff" opacity=".82" font-family="Inter, Cairo, Tajawal, Arial, sans-serif" font-size="28" font-weight="800" letter-spacing="3">DOYOUKNOW.APP</text>
    <text x="120" y="202" text-anchor="start" fill="#fff" font-family="Inter, Cairo, Tajawal, Arial, sans-serif" font-size="56" font-weight="900">Umrah: A Step-by-Step</text>
    <text x="120" y="262" text-anchor="start" fill="#fff" font-family="Inter, Cairo, Tajawal, Arial, sans-serif" font-size="56" font-weight="900">Guide</text>
    <text x="120" y="322" text-anchor="start" fill="#fff" opacity=".86" font-family="Inter, Cairo, Tajawal, Arial, sans-serif" font-size="30" font-weight="700">Islamic Knowledge &amp; Culture</text>
    <rect x="120" y="360" width="320" height="8" rx="4" fill="#FDE68A"/>
  </g>
  <g transform="translate(120 542)">
    <rect width="280" height="58" rx="29" fill="#fff" opacity=".14"/>
    <text x="32" y="38" fill="#fff" font-family="Inter, Cairo, Tajawal, Arial, sans-serif" font-size="24" font-weight="800">Islamic Knowledge</text>
  </g>
</svg>
