<svg xmlns="http://www.w3.org/2000/svg" width="1200" height="675" viewBox="0 0 1200 675" role="img" aria-labelledby="title desc">
  <title id="title">What Is Cognitive Behavioral Therapy — doyouknow.app illustration</title>
  <desc id="desc">Original doyouknow.app editorial artwork for What Is Cognitive Behavioral Therapy.</desc>
  <defs>
    <linearGradient id="bg" x1="0" y1="0" x2="1" y2="1">
      <stop offset="0%" stop-color="#241505"/>
      <stop offset="58%" stop-color="#B45309"/>
      <stop offset="100%" stop-color="#FCD34D"/>
    </linearGradient>
    <radialGradient id="glow" cx="76%" cy="22%" r="58%">
      <stop offset="0%" stop-color="#fff" stop-opacity=".35"/>
      <stop offset="100%" stop-color="#fff" stop-opacity="0"/>
    </radialGradient>
    <pattern id="dots" width="42" height="42" patternUnits="userSpaceOnUse">
      <circle cx="6" cy="6" r="2.5" fill="#fff" opacity=".16"/>
    </pattern>
    <filter id="shadow" x="-20%" y="-20%" width="140%" height="140%">
      <feDropShadow dx="0" dy="20" stdDeviation="24" flood-color="#020617" flood-opacity=".38"/>
    </filter>
  </defs>
  <rect width="1200" height="675" fill="url(#bg)"/>
  <rect width="1200" height="675" fill="url(#dots)" opacity=".72"/>
  <circle cx="884" cy="170" r="360" fill="url(#glow)"/>
  <path d="M0 520 C160 438 302 560 460 478 C632 388 772 496 936 414 C1049 357 1136 372 1200 338 L1200 675 L0 675Z" fill="#fff" opacity=".13"/>
  <g filter="url(#shadow)"><circle cx="600" cy="330" r="170" fill="#fff" opacity=".16"/><circle cx="600" cy="330" r="170" fill="none" stroke="#fff" stroke-width="14" opacity=".7"/><circle cx="600" cy="330" r="90" fill="none" stroke="#fff" stroke-width="10" opacity=".5"/><circle cx="600" cy="330" r="14" fill="#fff" opacity=".85"/></g>
  <text text-anchor="start" fill="#fff" font-family="Inter, Cairo, Tajawal, Arial, sans-serif" font-size="52" font-weight="700" direction="ltr"><tspan x="120" dy="0">What Is Cognitive Behavioral</tspan><tspan x="120" dy="64">Therapy</tspan></text>
</svg>