<svg xmlns="http://www.w3.org/2000/svg" width="1200" height="675" viewBox="0 0 1200 675" role="img" aria-labelledby="title desc">
  <title id="title">World Cup 2026 Tickets Guide: Phases, Prices and Scam Safety — doyouknow.app illustration</title>
  <desc id="desc">Original doyouknow.app editorial artwork for World Cup 2026 Tickets Guide: Phases, Prices and Scam Safety.</desc>
  <defs>
    <linearGradient id="bg" x1="0" y1="0" x2="1" y2="1">
      <stop offset="0%" stop-color="#1E3A8A"/>
      <stop offset="58%" stop-color="#3B82F6"/>
      <stop offset="100%" stop-color="#22C55E"/>
    </linearGradient>
    <radialGradient id="glow" cx="76%" cy="22%" r="58%">
      <stop offset="0%" stop-color="#fff" stop-opacity=".35"/>
      <stop offset="100%" stop-color="#fff" stop-opacity="0"/>
    </radialGradient>
    <pattern id="dots" width="42" height="42" patternUnits="userSpaceOnUse">
      <circle cx="6" cy="6" r="2.5" fill="#fff" opacity=".16"/>
    </pattern>
    <filter id="shadow" x="-20%" y="-20%" width="140%" height="140%">
      <feDropShadow dx="0" dy="20" stdDeviation="24" flood-color="#020617" flood-opacity=".38"/>
    </filter>
  </defs>
  <rect width="1200" height="675" fill="url(#bg)"/>
  <rect width="1200" height="675" fill="url(#dots)" opacity=".72"/>
  <circle cx="884" cy="170" r="360" fill="url(#glow)"/>
  <path d="M0 520 C160 438 302 560 460 478 C632 388 772 496 936 414 C1049 357 1136 372 1200 338 L1200 675 L0 675Z" fill="#fff" opacity=".13"/>
  <g filter="url(#shadow)" transform="translate(0 0)">
    <path d="M330 260h540c14 0 26 12 26 26v50c-32 0-58 26-58 58s26 58 58 58v50c0 14-12 26-26 26H330c-14 0-26-12-26-26v-50c32 0 58-26 58-58s-26-58-58-58v-50c0-14 12-26 26-26Z" fill="#fff" opacity=".16"/>
<path d="M330 260h540c14 0 26 12 26 26v50c-32 0-58 26-58 58s26 58 58 58v50c0 14-12 26-26 26H330c-14 0-26-12-26-26v-50c32 0 58-26 58-58s-26-58-58-58v-50c0-14 12-26 26-26Z" fill="none" stroke="#fff" stroke-width="14" opacity=".7"/>
<path d="M600 280v292" stroke="#fff" stroke-width="10" stroke-dasharray="14 16" opacity=".6"/>
<path d="M465 346l24 49 54 8-39 38 9 54-48-26-48 26 9-54-39-38 54-8Z" fill="#fff" opacity=".78"/>
<circle cx="726" cy="398" r="52" fill="none" stroke="#fff" stroke-width="14" opacity=".65"/>
<path d="M726 356a42 42 0 0 1 0 84" fill="none" stroke="#fff" stroke-width="12" opacity=".65"/>
  </g>
  <g transform="translate(0 0)" direction="ltr">
    <text x="120" y="122" text-anchor="start" fill="#fff" opacity=".82" font-family="Inter, Cairo, Tajawal, Arial, sans-serif" font-size="28" font-weight="800" letter-spacing="3">DOYOUKNOW.APP</text>
    <text x="120" y="202" text-anchor="start" fill="#fff" font-family="Inter, Cairo, Tajawal, Arial, sans-serif" font-size="54" font-weight="900">World Cup 2026 Tickets Guide</text>
    <text x="120" y="262" text-anchor="start" fill="#fff" opacity=".86" font-family="Inter, Cairo, Tajawal, Arial, sans-serif" font-size="30" font-weight="700">Phases, Prices &amp; Safety</text>
    <rect x="120" y="300" width="320" height="8" rx="4" fill="#A7F3D0"/>
  </g>
  <g transform="translate(120 542)">
    <rect width="244" height="58" rx="29" fill="#fff" opacity=".14"/>
    <text x="32" y="38" fill="#fff" font-family="Inter, Cairo, Tajawal, Arial, sans-serif" font-size="24" font-weight="800">World Cup 2026</text>
  </g>
</svg>
