<svg xmlns="http://www.w3.org/2000/svg" width="1200" height="675" viewBox="0 0 1200 675" role="img" aria-labelledby="title desc">
  <title id="title">How FIFA Picks the World Cup Final Referee — doyouknow.app illustration</title>
  <desc id="desc">Original doyouknow.app editorial artwork for How FIFA Picks the World Cup Final Referee.</desc>
  <defs>
    <linearGradient id="bg" x1="0" y1="0" x2="1" y2="1"><stop offset="0%" stop-color="#0B1120"/><stop offset="58%" stop-color="#1E3A8A"/><stop offset="100%" stop-color="#B45309"/></linearGradient>
    <radialGradient id="glow" cx="76%" cy="22%" r="58%"><stop offset="0%" stop-color="#fff" stop-opacity=".35"/><stop offset="100%" stop-color="#fff" stop-opacity="0"/></radialGradient>
    <pattern id="dots" width="42" height="42" patternUnits="userSpaceOnUse"><circle cx="6" cy="6" r="2.5" fill="#fff" opacity=".16"/></pattern>
    <filter id="shadow" x="-20%" y="-20%" width="140%" height="140%"><feDropShadow dx="0" dy="20" stdDeviation="24" flood-color="#020617" flood-opacity=".38"/></filter>
  </defs>
  <rect width="1200" height="675" fill="url(#bg)"/><rect width="1200" height="675" fill="url(#dots)" opacity=".72"/><circle cx="884" cy="170" r="360" fill="url(#glow)"/>
  <path d="M0 520 C160 438 302 560 460 478 C632 388 772 496 936 414 C1049 357 1136 372 1200 338 L1200 675 L0 675Z" fill="#fff" opacity=".13"/>
  <g filter="url(#shadow)">
    <circle cx="560" cy="420" r="105" fill="none" stroke="#fff" stroke-width="18" opacity=".72"/>
    <path d="M560 315v-60M470 380l-90-48M650 380l90-48" fill="none" stroke="#fff" stroke-width="18" stroke-linecap="round" opacity=".72"/>
    <path d="M470 470c60 55 120 55 180 0" fill="none" stroke="#fff" stroke-width="18" stroke-linecap="round" opacity=".62"/>
    <path d="M770 330h130l40 60-40 60H770c-30-60-30-60 0-120z" fill="none" stroke="#fff" stroke-width="16" stroke-linejoin="round" opacity=".58"/>
  </g>
  <text x="120" y="122" text-anchor="start" fill="#fff" opacity=".82" font-family="Inter, Arial, sans-serif" font-size="28" font-weight="800" letter-spacing="3">DOYOUKNOW.APP</text>
  <text x="120" y="196" text-anchor="start" fill="#fff" font-family="Inter, Arial, sans-serif" font-size="48" font-weight="900">How FIFA Picks the World Cup</text>
  <text x="120" y="252" text-anchor="start" fill="#fff" font-family="Inter, Arial, sans-serif" font-size="48" font-weight="900">Final Referee</text>
  <text x="120" y="310" text-anchor="start" fill="#fff" opacity=".86" font-family="Inter, Arial, sans-serif" font-size="30" font-weight="700">World Cup 2026</text>
  <rect x="120" y="340" width="320" height="8" rx="4" fill="#B45309"/>
</svg>
