<svg xmlns="http://www.w3.org/2000/svg" width="1200" height="675" viewBox="0 0 1200 675" role="img" aria-labelledby="title desc">
  <title id="title">Yanbu, Saudi Arabia: Port, Industry, Diving, and Living — doyouknow.app illustration</title>
  <desc id="desc">Original doyouknow.app editorial artwork for Yanbu, Saudi Arabia: Port, Industry, Diving, and Living.</desc>
  <defs>
    <linearGradient id="bg" x1="0" y1="0" x2="1" y2="1"><stop offset="0%" stop-color="#0C4A6E"/><stop offset="58%" stop-color="#0E7490"/><stop offset="100%" stop-color="#B45309"/></linearGradient>
    <radialGradient id="glow" cx="76%" cy="22%" r="58%"><stop offset="0%" stop-color="#fff" stop-opacity=".35"/><stop offset="100%" stop-color="#fff" stop-opacity="0"/></radialGradient>
    <pattern id="dots" width="42" height="42" patternUnits="userSpaceOnUse"><circle cx="6" cy="6" r="2.5" fill="#fff" opacity=".16"/></pattern>
    <filter id="shadow" x="-20%" y="-20%" width="140%" height="140%"><feDropShadow dx="0" dy="20" stdDeviation="24" flood-color="#020617" flood-opacity=".38"/></filter>
  </defs>
  <rect width="1200" height="675" fill="url(#bg)"/><rect width="1200" height="675" fill="url(#dots)" opacity=".72"/><circle cx="884" cy="170" r="360" fill="url(#glow)"/>
  <path d="M0 520 C160 438 302 560 460 478 C632 388 772 496 936 414 C1049 357 1136 372 1200 338 L1200 675 L0 675Z" fill="#fff" opacity=".13"/>
  <g filter="url(#shadow)">
    <path d="M360 540V300h60v240M360 330l180-60M390 300v-50l150-40M540 270v-40h60" fill="none" stroke="#fff" stroke-width="18" stroke-linecap="round" stroke-linejoin="round" opacity=".72"/>
    <path d="M620 540V360h56v180M620 396l150-50M648 360v-44l128-34M776 326v-36h54" fill="none" stroke="#fff" stroke-width="16" stroke-linecap="round" stroke-linejoin="round" opacity=".62"/>
    <path d="M320 540h600" stroke="#fff" stroke-width="18" stroke-linecap="round" opacity=".72"/>
    <path d="M360 590c40 22 80 22 120 0s80-22 120 0 80 22 120 0 80-22 120 0" fill="none" stroke="#fff" stroke-width="14" stroke-linecap="round" opacity=".5"/>
  </g>
  <text x="120" y="122" text-anchor="start" fill="#fff" opacity=".82" font-family="Inter, Arial, sans-serif" font-size="28" font-weight="800" letter-spacing="3">DOYOUKNOW.APP</text>
  <text x="120" y="196" text-anchor="start" fill="#fff" font-family="Inter, Arial, sans-serif" font-size="46" font-weight="900">Yanbu, Saudi Arabia:</text>
  <text x="120" y="250" text-anchor="start" fill="#fff" font-family="Inter, Arial, sans-serif" font-size="46" font-weight="900">Port, Industry, Diving &amp; Living</text>
  <text x="120" y="308" text-anchor="start" fill="#fff" opacity=".86" font-family="Inter, Arial, sans-serif" font-size="30" font-weight="700">Saudi Arabia</text>
  <rect x="120" y="338" width="320" height="8" rx="4" fill="#22D3EE"/>
</svg>
